<?xml version="1.0" encoding="UTF-8" standalone="no"?>
<!DOCTYPE svg PUBLIC "-//W3C//DTD SVG 1.1//EN"
 "http://www.w3.org/Graphics/SVG/1.1/DTD/svg11.dtd">
<!-- Generated by graphviz version 9.0.0 (20231125.0833)
 -->
<!-- Title: snakemake_dag Pages: 1 -->
<svg width="486pt" height="785pt"
 viewBox="0.00 0.00 486.12 784.50" xmlns="http://www.w3.org/2000/svg" xmlns:xlink="http://www.w3.org/1999/xlink">
<g id="graph0" class="graph" transform="scale(1 1) rotate(0) translate(4 780.5)">
<title>snakemake_dag</title>
<polygon fill="white" stroke="none" points="-4,4 -4,-780.5 482.12,-780.5 482.12,4 -4,4"/>
<!-- 0 -->
<g id="node1" class="node">
<title>0</title>
<path fill="none" stroke="#56b9d8" stroke-width="2" d="M200.5,-36C200.5,-36 170.5,-36 170.5,-36 164.5,-36 158.5,-30 158.5,-24 158.5,-24 158.5,-12 158.5,-12 158.5,-6 164.5,0 170.5,0 170.5,0 200.5,0 200.5,0 206.5,0 212.5,-6 212.5,-12 212.5,-12 212.5,-24 212.5,-24 212.5,-30 206.5,-36 200.5,-36"/>
<text text-anchor="middle" x="185.5" y="-14.88" font-family="sans" font-size="10.00">all</text>
</g>
<!-- 1 -->
<g id="node2" class="node">
<title>1</title>
<path fill="none" stroke="#56d8b9" stroke-width="2" stroke-dasharray="5,2" d="M127,-632.5C127,-632.5 12,-632.5 12,-632.5 6,-632.5 0,-626.5 0,-620.5 0,-620.5 0,-598.25 0,-598.25 0,-592.25 6,-586.25 12,-586.25 12,-586.25 127,-586.25 127,-586.25 133,-586.25 139,-592.25 139,-598.25 139,-598.25 139,-620.5 139,-620.5 139,-626.5 133,-632.5 127,-632.5"/>
<text text-anchor="middle" x="69.5" y="-619" font-family="sans" font-size="10.00">quality_control</text>
<text text-anchor="middle" x="69.5" y="-606.25" font-family="sans" font-size="10.00">name: C3FGNACXX_1_15</text>
<text text-anchor="middle" x="69.5" y="-593.5" font-family="sans" font-size="10.00">unit: 1</text>
</g>
<!-- 1&#45;&gt;0 -->
<g id="edge1" class="edge">
<title>1&#45;&gt;0</title>
<path fill="none" stroke="grey" stroke-width="2" d="M69.5,-585.44C69.5,-554.8 69.5,-498.81 69.5,-451 69.5,-451 69.5,-451 69.5,-161 69.5,-110.88 113.38,-68.69 147.17,-43.64"/>
<polygon fill="grey" stroke="grey" stroke-width="2" points="149.14,-46.54 155.25,-37.88 145.08,-40.84 149.14,-46.54"/>
</g>
<!-- 2 -->
<g id="node3" class="node">
<title>2</title>
<path fill="none" stroke="#d6d856" stroke-width="2" stroke-dasharray="5,2" d="M182.5,-776.5C182.5,-776.5 152.5,-776.5 152.5,-776.5 146.5,-776.5 140.5,-770.5 140.5,-764.5 140.5,-764.5 140.5,-752.5 140.5,-752.5 140.5,-746.5 146.5,-740.5 152.5,-740.5 152.5,-740.5 182.5,-740.5 182.5,-740.5 188.5,-740.5 194.5,-746.5 194.5,-752.5 194.5,-752.5 194.5,-764.5 194.5,-764.5 194.5,-770.5 188.5,-776.5 182.5,-776.5"/>
<text text-anchor="middle" x="167.5" y="-755.38" font-family="sans" font-size="10.00">unzip</text>
</g>
<!-- 2&#45;&gt;1 -->
<g id="edge7" class="edge">
<title>2&#45;&gt;1</title>
<path fill="none" stroke="grey" stroke-width="2" d="M155.68,-739.75C139.92,-716.1 111.73,-673.78 91.89,-643.99"/>
<polygon fill="grey" stroke="grey" stroke-width="2" points="94.87,-642.16 86.42,-635.77 89.05,-646.04 94.87,-642.16"/>
</g>
<!-- 3 -->
<g id="node4" class="node">
<title>3</title>
<path fill="none" stroke="#56d8b9" stroke-width="2" stroke-dasharray="5,2" d="M225,-550.25C225,-550.25 110,-550.25 110,-550.25 104,-550.25 98,-544.25 98,-538.25 98,-538.25 98,-516 98,-516 98,-510 104,-504 110,-504 110,-504 225,-504 225,-504 231,-504 237,-510 237,-516 237,-516 237,-538.25 237,-538.25 237,-544.25 231,-550.25 225,-550.25"/>
<text text-anchor="middle" x="167.5" y="-536.75" font-family="sans" font-size="10.00">quality_control</text>
<text text-anchor="middle" x="167.5" y="-524" font-family="sans" font-size="10.00">name: C3FGNACXX_1_15</text>
<text text-anchor="middle" x="167.5" y="-511.25" font-family="sans" font-size="10.00">unit: 2</text>
</g>
<!-- 2&#45;&gt;3 -->
<g id="edge8" class="edge">
<title>2&#45;&gt;3</title>
<path fill="none" stroke="grey" stroke-width="2" d="M167.5,-739.5C167.5,-701.76 167.5,-613.71 167.5,-563.98"/>
<polygon fill="grey" stroke="grey" stroke-width="2" points="171,-564.07 167.5,-554.07 164,-564.07 171,-564.07"/>
</g>
<!-- 8 -->
<g id="node9" class="node">
<title>8</title>
<path fill="none" stroke="#d8b456" stroke-width="2" stroke-dasharray="5,2" d="M341.12,-704.5C341.12,-704.5 217.88,-704.5 217.88,-704.5 211.88,-704.5 205.88,-698.5 205.88,-692.5 205.88,-692.5 205.88,-680.5 205.88,-680.5 205.88,-674.5 211.88,-668.5 217.88,-668.5 217.88,-668.5 341.12,-668.5 341.12,-668.5 347.12,-668.5 353.12,-674.5 353.12,-680.5 353.12,-680.5 353.12,-692.5 353.12,-692.5 353.12,-698.5 347.12,-704.5 341.12,-704.5"/>
<text text-anchor="middle" x="279.5" y="-689.75" font-family="sans" font-size="10.00">bwa_map</text>
<text text-anchor="middle" x="279.5" y="-677" font-family="sans" font-size="10.00">sample: C3FGNACXX_1_15</text>
</g>
<!-- 2&#45;&gt;8 -->
<g id="edge14" class="edge">
<title>2&#45;&gt;8</title>
<path fill="none" stroke="grey" stroke-width="2" d="M195.47,-740.02C208.9,-731.63 225.22,-721.43 239.89,-712.26"/>
<polygon fill="grey" stroke="grey" stroke-width="2" points="241.52,-715.36 248.15,-707.1 237.81,-709.43 241.52,-715.36"/>
</g>
<!-- 3&#45;&gt;0 -->
<g id="edge2" class="edge">
<title>3&#45;&gt;0</title>
<path fill="none" stroke="grey" stroke-width="2" d="M151.74,-503.35C133.96,-475.39 107.5,-425.89 107.5,-379 107.5,-379 107.5,-379 107.5,-161 107.5,-116.85 136.82,-73.47 159.51,-46.5"/>
<polygon fill="grey" stroke="grey" stroke-width="2" points="161.87,-49.11 165.81,-39.28 156.6,-44.51 161.87,-49.11"/>
</g>
<!-- 4 -->
<g id="node5" class="node">
<title>4</title>
<path fill="none" stroke="#567bd8" stroke-width="2" stroke-dasharray="5,2" d="M434,-396C434,-396 361,-396 361,-396 355,-396 349,-390 349,-384 349,-384 349,-372 349,-372 349,-366 355,-360 361,-360 361,-360 434,-360 434,-360 440,-360 446,-366 446,-372 446,-372 446,-384 446,-384 446,-390 440,-396 434,-396"/>
<text text-anchor="middle" x="397.5" y="-374.88" font-family="sans" font-size="10.00">haplotype_caller</text>
</g>
<!-- 4&#45;&gt;0 -->
<g id="edge3" class="edge">
<title>4&#45;&gt;0</title>
<path fill="none" stroke="grey" stroke-width="2" d="M406.41,-359.12C418.74,-332.68 439.5,-281.28 439.5,-235 439.5,-235 439.5,-235 439.5,-161 439.5,-64.21 297.26,-32.76 225.66,-23.06"/>
<polygon fill="grey" stroke="grey" stroke-width="2" points="226.53,-19.65 216.17,-21.87 225.66,-26.59 226.53,-19.65"/>
</g>
<!-- 14 -->
<g id="node15" class="node">
<title>14</title>
<path fill="none" stroke="#d87556" stroke-width="2" stroke-dasharray="5,2" d="M268.12,-324C268.12,-324 228.88,-324 228.88,-324 222.88,-324 216.88,-318 216.88,-312 216.88,-312 216.88,-300 216.88,-300 216.88,-294 222.88,-288 228.88,-288 228.88,-288 268.12,-288 268.12,-288 274.12,-288 280.12,-294 280.12,-300 280.12,-300 280.12,-312 280.12,-312 280.12,-318 274.12,-324 268.12,-324"/>
<text text-anchor="middle" x="248.5" y="-302.88" font-family="sans" font-size="10.00">compress</text>
</g>
<!-- 4&#45;&gt;14 -->
<g id="edge27" class="edge">
<title>4&#45;&gt;14</title>
<path fill="none" stroke="grey" stroke-width="2" d="M359.52,-359.15C339.1,-349.56 313.81,-337.68 292.54,-327.69"/>
<polygon fill="grey" stroke="grey" stroke-width="2" points="294.14,-324.57 283.6,-323.49 291.16,-330.91 294.14,-324.57"/>
</g>
<!-- 5 -->
<g id="node6" class="node">
<title>5</title>
<path fill="none" stroke="#59d856" stroke-width="2" stroke-dasharray="5,2" d="M466.12,-468C466.12,-468 396.88,-468 396.88,-468 390.88,-468 384.88,-462 384.88,-456 384.88,-456 384.88,-444 384.88,-444 384.88,-438 390.88,-432 396.88,-432 396.88,-432 466.12,-432 466.12,-432 472.12,-432 478.12,-438 478.12,-444 478.12,-444 478.12,-456 478.12,-456 478.12,-462 472.12,-468 466.12,-468"/>
<text text-anchor="middle" x="431.5" y="-446.88" font-family="sans" font-size="10.00">samtools_index</text>
</g>
<!-- 5&#45;&gt;4 -->
<g id="edge9" class="edge">
<title>5&#45;&gt;4</title>
<path fill="none" stroke="grey" stroke-width="2" d="M422.92,-431.34C419.56,-424.43 415.62,-416.31 411.86,-408.56"/>
<polygon fill="grey" stroke="grey" stroke-width="2" points="415.04,-407.09 407.52,-399.62 408.74,-410.15 415.04,-407.09"/>
</g>
<!-- 10 -->
<g id="node11" class="node">
<title>10</title>
<path fill="none" stroke="#b6d856" stroke-width="2" d="M399.75,-252C399.75,-252 349.25,-252 349.25,-252 343.25,-252 337.25,-246 337.25,-240 337.25,-240 337.25,-228 337.25,-228 337.25,-222 343.25,-216 349.25,-216 349.25,-216 399.75,-216 399.75,-216 405.75,-216 411.75,-222 411.75,-228 411.75,-228 411.75,-240 411.75,-240 411.75,-246 405.75,-252 399.75,-252"/>
<text text-anchor="middle" x="374.5" y="-230.88" font-family="sans" font-size="10.00">deepvariant</text>
</g>
<!-- 5&#45;&gt;10 -->
<g id="edge17" class="edge">
<title>5&#45;&gt;10</title>
<path fill="none" stroke="grey" stroke-width="2" d="M442.16,-431.2C451.57,-413.18 462.76,-384.55 455.5,-360 444.51,-322.85 418.64,-286.36 399.07,-262.5"/>
<polygon fill="grey" stroke="grey" stroke-width="2" points="401.94,-260.47 392.82,-255.08 396.59,-264.98 401.94,-260.47"/>
</g>
<!-- 6 -->
<g id="node7" class="node">
<title>6</title>
<path fill="none" stroke="#569ad8" stroke-width="2" stroke-dasharray="5,2" d="M355,-545.12C355,-545.12 282,-545.12 282,-545.12 276,-545.12 270,-539.12 270,-533.12 270,-533.12 270,-521.12 270,-521.12 270,-515.12 276,-509.12 282,-509.12 282,-509.12 355,-509.12 355,-509.12 361,-509.12 367,-515.12 367,-521.12 367,-521.12 367,-533.12 367,-533.12 367,-539.12 361,-545.12 355,-545.12"/>
<text text-anchor="middle" x="318.5" y="-524" font-family="sans" font-size="10.00">mark_duplicates</text>
</g>
<!-- 6&#45;&gt;4 -->
<g id="edge10" class="edge">
<title>6&#45;&gt;4</title>
<path fill="none" stroke="grey" stroke-width="2" d="M328.03,-508.38C341.37,-483.52 365.79,-438.05 381.83,-408.17"/>
<polygon fill="grey" stroke="grey" stroke-width="2" points="384.86,-409.94 386.5,-399.48 378.69,-406.63 384.86,-409.94"/>
</g>
<!-- 6&#45;&gt;5 -->
<g id="edge11" class="edge">
<title>6&#45;&gt;5</title>
<path fill="none" stroke="grey" stroke-width="2" d="M345.57,-508.13C360.1,-498.47 378.24,-486.41 394.11,-475.86"/>
<polygon fill="grey" stroke="grey" stroke-width="2" points="395.74,-478.97 402.13,-470.52 391.87,-473.15 395.74,-478.97"/>
</g>
<!-- 9 -->
<g id="node10" class="node">
<title>9</title>
<path fill="none" stroke="#56d89a" stroke-width="2" stroke-dasharray="5,2" d="M271.5,-396C271.5,-396 225.5,-396 225.5,-396 219.5,-396 213.5,-390 213.5,-384 213.5,-384 213.5,-372 213.5,-372 213.5,-366 219.5,-360 225.5,-360 225.5,-360 271.5,-360 271.5,-360 277.5,-360 283.5,-366 283.5,-372 283.5,-372 283.5,-384 283.5,-384 283.5,-390 277.5,-396 271.5,-396"/>
<text text-anchor="middle" x="248.5" y="-374.88" font-family="sans" font-size="10.00">free_bayes</text>
</g>
<!-- 6&#45;&gt;9 -->
<g id="edge15" class="edge">
<title>6&#45;&gt;9</title>
<path fill="none" stroke="grey" stroke-width="2" d="M310.06,-508.38C298.23,-483.52 276.59,-438.05 262.38,-408.17"/>
<polygon fill="grey" stroke="grey" stroke-width="2" points="265.73,-407.07 258.27,-399.54 259.41,-410.08 265.73,-407.07"/>
</g>
<!-- 6&#45;&gt;10 -->
<g id="edge16" class="edge">
<title>6&#45;&gt;10</title>
<path fill="none" stroke="grey" stroke-width="2" d="M320.05,-508.54C322.9,-478.08 329.71,-413.62 340.5,-360 347.12,-327.11 357.57,-290.1 365.14,-264.95"/>
<polygon fill="grey" stroke="grey" stroke-width="2" points="368.45,-266.1 368.02,-255.52 361.75,-264.06 368.45,-266.1"/>
</g>
<!-- 7 -->
<g id="node8" class="node">
<title>7</title>
<path fill="none" stroke="#d89556" stroke-width="2" stroke-dasharray="5,2" d="M318.38,-627.38C318.38,-627.38 280.62,-627.38 280.62,-627.38 274.62,-627.38 268.62,-621.38 268.62,-615.38 268.62,-615.38 268.62,-603.38 268.62,-603.38 268.62,-597.38 274.62,-591.38 280.62,-591.38 280.62,-591.38 318.38,-591.38 318.38,-591.38 324.38,-591.38 330.38,-597.38 330.38,-603.38 330.38,-603.38 330.38,-615.38 330.38,-615.38 330.38,-621.38 324.38,-627.38 318.38,-627.38"/>
<text text-anchor="middle" x="299.5" y="-606.25" font-family="sans" font-size="10.00">sort_bam</text>
</g>
<!-- 7&#45;&gt;6 -->
<g id="edge12" class="edge">
<title>7&#45;&gt;6</title>
<path fill="none" stroke="grey" stroke-width="2" d="M303.72,-590.56C305.96,-581.11 308.77,-569.23 311.34,-558.38"/>
<polygon fill="grey" stroke="grey" stroke-width="2" points="314.7,-559.37 313.6,-548.83 307.89,-557.76 314.7,-559.37"/>
</g>
<!-- 8&#45;&gt;7 -->
<g id="edge13" class="edge">
<title>8&#45;&gt;7</title>
<path fill="none" stroke="grey" stroke-width="2" d="M284.24,-667.7C286.39,-659.62 289,-649.83 291.44,-640.65"/>
<polygon fill="grey" stroke="grey" stroke-width="2" points="294.76,-641.8 293.95,-631.24 287.99,-640 294.76,-641.8"/>
</g>
<!-- 9&#45;&gt;0 -->
<g id="edge4" class="edge">
<title>9&#45;&gt;0</title>
<path fill="none" stroke="grey" stroke-width="2" d="M223.83,-359.15C193.36,-334.82 145.5,-288.14 145.5,-235 145.5,-235 145.5,-235 145.5,-161 145.5,-121.02 160.37,-77 171.98,-48.73"/>
<polygon fill="grey" stroke="grey" stroke-width="2" points="175.12,-50.28 175.83,-39.71 168.69,-47.53 175.12,-50.28"/>
</g>
<!-- 9&#45;&gt;14 -->
<g id="edge26" class="edge">
<title>9&#45;&gt;14</title>
<path fill="none" stroke="grey" stroke-width="2" d="M248.5,-359.34C248.5,-352.75 248.5,-345.08 248.5,-337.67"/>
<polygon fill="grey" stroke="grey" stroke-width="2" points="252,-337.93 248.5,-327.93 245,-337.93 252,-337.93"/>
</g>
<!-- 10&#45;&gt;0 -->
<g id="edge5" class="edge">
<title>10&#45;&gt;0</title>
<path fill="none" stroke="grey" stroke-width="2" d="M371.43,-215.14C367.59,-196.32 359.73,-166.34 345.5,-144 315.6,-97.05 261.71,-60.46 224.8,-39.31"/>
<polygon fill="grey" stroke="grey" stroke-width="2" points="226.55,-36.28 216.11,-34.47 223.14,-42.39 226.55,-36.28"/>
</g>
<!-- 11 -->
<g id="node12" class="node">
<title>11</title>
<path fill="none" stroke="#78d856" stroke-width="2" d="M247.62,-108C247.62,-108 205.38,-108 205.38,-108 199.38,-108 193.38,-102 193.38,-96 193.38,-96 193.38,-84 193.38,-84 193.38,-78 199.38,-72 205.38,-72 205.38,-72 247.62,-72 247.62,-72 253.62,-72 259.62,-78 259.62,-84 259.62,-84 259.62,-96 259.62,-96 259.62,-102 253.62,-108 247.62,-108"/>
<text text-anchor="middle" x="226.5" y="-86.88" font-family="sans" font-size="10.00">divide_vcf</text>
</g>
<!-- 10&#45;&gt;11 -->
<g id="edge21" class="edge">
<title>10&#45;&gt;11</title>
<path fill="none" stroke="grey" stroke-width="2" d="M366.3,-215.2C356.72,-195.87 339.36,-164.95 317.5,-144 304.12,-131.17 287.06,-120.19 271.34,-111.61"/>
<polygon fill="grey" stroke="grey" stroke-width="2" points="273.37,-108.72 262.88,-107.19 270.13,-114.92 273.37,-108.72"/>
</g>
<!-- 12 -->
<g id="node13" class="node">
<title>12</title>
<path fill="none" stroke="#56d8d8" stroke-width="2" d="M296.5,-180C296.5,-180 266.5,-180 266.5,-180 260.5,-180 254.5,-174 254.5,-168 254.5,-168 254.5,-156 254.5,-156 254.5,-150 260.5,-144 266.5,-144 266.5,-144 296.5,-144 296.5,-144 302.5,-144 308.5,-150 308.5,-156 308.5,-156 308.5,-168 308.5,-168 308.5,-174 302.5,-180 296.5,-180"/>
<text text-anchor="middle" x="281.5" y="-158.88" font-family="sans" font-size="10.00">index</text>
</g>
<!-- 10&#45;&gt;12 -->
<g id="edge24" class="edge">
<title>10&#45;&gt;12</title>
<path fill="none" stroke="grey" stroke-width="2" d="M351.03,-215.34C340.32,-207.27 327.43,-197.57 315.67,-188.72"/>
<polygon fill="grey" stroke="grey" stroke-width="2" points="317.8,-185.94 307.7,-182.72 313.59,-191.53 317.8,-185.94"/>
</g>
<!-- 11&#45;&gt;0 -->
<g id="edge6" class="edge">
<title>11&#45;&gt;0</title>
<path fill="none" stroke="grey" stroke-width="2" d="M216.15,-71.34C212.01,-64.26 207.13,-55.92 202.49,-48"/>
<polygon fill="grey" stroke="grey" stroke-width="2" points="205.59,-46.37 197.52,-39.51 199.55,-49.91 205.59,-46.37"/>
</g>
<!-- 12&#45;&gt;11 -->
<g id="edge18" class="edge">
<title>12&#45;&gt;11</title>
<path fill="none" stroke="grey" stroke-width="2" d="M267.62,-143.34C261.8,-135.93 254.9,-127.14 248.42,-118.9"/>
<polygon fill="grey" stroke="grey" stroke-width="2" points="251.37,-116.98 242.44,-111.28 245.86,-121.31 251.37,-116.98"/>
</g>
<!-- 13 -->
<g id="node14" class="node">
<title>13</title>
<path fill="none" stroke="#97d856" stroke-width="2" stroke-dasharray="5,2" d="M269.12,-252C269.12,-252 223.88,-252 223.88,-252 217.88,-252 211.88,-246 211.88,-240 211.88,-240 211.88,-228 211.88,-228 211.88,-222 217.88,-216 223.88,-216 223.88,-216 269.12,-216 269.12,-216 275.12,-216 281.12,-222 281.12,-228 281.12,-228 281.12,-240 281.12,-240 281.12,-246 275.12,-252 269.12,-252"/>
<text text-anchor="middle" x="246.5" y="-230.88" font-family="sans" font-size="10.00">sort_bayes</text>
</g>
<!-- 13&#45;&gt;11 -->
<g id="edge19" class="edge">
<title>13&#45;&gt;11</title>
<path fill="none" stroke="grey" stroke-width="2" d="M243.97,-215.02C240.66,-191.54 234.82,-150.11 230.82,-121.64"/>
<polygon fill="grey" stroke="grey" stroke-width="2" points="234.3,-121.25 229.43,-111.84 227.36,-122.23 234.3,-121.25"/>
</g>
<!-- 13&#45;&gt;12 -->
<g id="edge22" class="edge">
<title>13&#45;&gt;12</title>
<path fill="none" stroke="grey" stroke-width="2" d="M255.33,-215.34C258.83,-208.34 262.94,-200.12 266.86,-192.28"/>
<polygon fill="grey" stroke="grey" stroke-width="2" points="269.85,-194.12 271.2,-183.61 263.59,-190.99 269.85,-194.12"/>
</g>
<!-- 14&#45;&gt;11 -->
<g id="edge20" class="edge">
<title>14&#45;&gt;11</title>
<path fill="none" stroke="grey" stroke-width="2" d="M227.19,-287.14C217.7,-277.78 207.53,-265.47 202.5,-252 186.18,-208.29 200.89,-154.01 213.39,-120.96"/>
<polygon fill="grey" stroke="grey" stroke-width="2" points="216.59,-122.39 217.06,-111.8 210.09,-119.79 216.59,-122.39"/>
</g>
<!-- 14&#45;&gt;12 -->
<g id="edge23" class="edge">
<title>14&#45;&gt;12</title>
<path fill="none" stroke="grey" stroke-width="2" d="M267.54,-287.28C276.35,-277.78 285.87,-265.3 290.5,-252 297.05,-233.18 294.78,-210.87 290.88,-193.3"/>
<polygon fill="grey" stroke="grey" stroke-width="2" points="294.33,-192.66 288.45,-183.85 287.55,-194.41 294.33,-192.66"/>
</g>
<!-- 14&#45;&gt;13 -->
<g id="edge25" class="edge">
<title>14&#45;&gt;13</title>
<path fill="none" stroke="grey" stroke-width="2" d="M248,-287.34C247.81,-280.75 247.59,-273.08 247.38,-265.67"/>
<polygon fill="grey" stroke="grey" stroke-width="2" points="250.88,-265.82 247.1,-255.93 243.89,-266.02 250.88,-265.82"/>
</g>
</g>
</svg>
