<?xml version="1.0" encoding="UTF-8" standalone="no"?>
<!DOCTYPE svg PUBLIC "-//W3C//DTD SVG 1.1//EN"
 "http://www.w3.org/Graphics/SVG/1.1/DTD/svg11.dtd">
<!-- Generated by graphviz version 9.0.0 (20231125.0833)
 -->
<!-- Title: snakemake_dag Pages: 1 -->
<svg width="345pt" height="713pt"
 viewBox="0.00 0.00 345.38 712.50" xmlns="http://www.w3.org/2000/svg" xmlns:xlink="http://www.w3.org/1999/xlink">
<g id="graph0" class="graph" transform="scale(1 1) rotate(0) translate(4 708.5)">
<title>snakemake_dag</title>
<polygon fill="white" stroke="none" points="-4,4 -4,-708.5 341.38,-708.5 341.38,4 -4,4"/>
<!-- 0 -->
<g id="node1" class="node">
<title>0</title>
<path fill="none" stroke="#56d88a" stroke-width="2" stroke-dasharray="5,2" d="M172.38,-36C172.38,-36 142.38,-36 142.38,-36 136.38,-36 130.38,-30 130.38,-24 130.38,-24 130.38,-12 130.38,-12 130.38,-6 136.38,0 142.38,0 142.38,0 172.38,0 172.38,0 178.38,0 184.38,-6 184.38,-12 184.38,-12 184.38,-24 184.38,-24 184.38,-30 178.38,-36 172.38,-36"/>
<text text-anchor="middle" x="157.38" y="-14.88" font-family="sans" font-size="10.00">all</text>
</g>
<!-- 1 -->
<g id="node2" class="node">
<title>1</title>
<path fill="none" stroke="#d89c56" stroke-width="2" stroke-dasharray="5,2" d="M76.75,-560.5C76.75,-560.5 12,-560.5 12,-560.5 6,-560.5 0,-554.5 0,-548.5 0,-548.5 0,-526.25 0,-526.25 0,-520.25 6,-514.25 12,-514.25 12,-514.25 76.75,-514.25 76.75,-514.25 82.75,-514.25 88.75,-520.25 88.75,-526.25 88.75,-526.25 88.75,-548.5 88.75,-548.5 88.75,-554.5 82.75,-560.5 76.75,-560.5"/>
<text text-anchor="middle" x="44.38" y="-547" font-family="sans" font-size="10.00">quality_control</text>
<text text-anchor="middle" x="44.38" y="-534.25" font-family="sans" font-size="10.00">name: A_1_20</text>
<text text-anchor="middle" x="44.38" y="-521.5" font-family="sans" font-size="10.00">unit: 1</text>
</g>
<!-- 1&#45;&gt;0 -->
<g id="edge1" class="edge">
<title>1&#45;&gt;0</title>
<path fill="none" stroke="grey" stroke-width="2" d="M44.38,-513.44C44.38,-482.8 44.38,-426.81 44.38,-379 44.38,-379 44.38,-379 44.38,-161 44.38,-111.82 86.39,-69.82 119.18,-44.52"/>
<polygon fill="grey" stroke="grey" stroke-width="2" points="121.07,-47.49 127.01,-38.72 116.9,-41.87 121.07,-47.49"/>
</g>
<!-- 2 -->
<g id="node3" class="node">
<title>2</title>
<path fill="none" stroke="#afd856" stroke-width="2" stroke-dasharray="5,2" d="M131.38,-704.5C131.38,-704.5 101.38,-704.5 101.38,-704.5 95.38,-704.5 89.38,-698.5 89.38,-692.5 89.38,-692.5 89.38,-680.5 89.38,-680.5 89.38,-674.5 95.38,-668.5 101.38,-668.5 101.38,-668.5 131.38,-668.5 131.38,-668.5 137.38,-668.5 143.38,-674.5 143.38,-680.5 143.38,-680.5 143.38,-692.5 143.38,-692.5 143.38,-698.5 137.38,-704.5 131.38,-704.5"/>
<text text-anchor="middle" x="116.38" y="-683.38" font-family="sans" font-size="10.00">unzip</text>
</g>
<!-- 2&#45;&gt;1 -->
<g id="edge7" class="edge">
<title>2&#45;&gt;1</title>
<path fill="none" stroke="grey" stroke-width="2" d="M107.69,-667.75C96.22,-644.31 75.77,-602.52 61.21,-572.78"/>
<polygon fill="grey" stroke="grey" stroke-width="2" points="64.44,-571.42 56.9,-563.97 58.15,-574.49 64.44,-571.42"/>
</g>
<!-- 3 -->
<g id="node4" class="node">
<title>3</title>
<path fill="none" stroke="#d89c56" stroke-width="2" stroke-dasharray="5,2" d="M148.75,-478.25C148.75,-478.25 84,-478.25 84,-478.25 78,-478.25 72,-472.25 72,-466.25 72,-466.25 72,-444 72,-444 72,-438 78,-432 84,-432 84,-432 148.75,-432 148.75,-432 154.75,-432 160.75,-438 160.75,-444 160.75,-444 160.75,-466.25 160.75,-466.25 160.75,-472.25 154.75,-478.25 148.75,-478.25"/>
<text text-anchor="middle" x="116.38" y="-464.75" font-family="sans" font-size="10.00">quality_control</text>
<text text-anchor="middle" x="116.38" y="-452" font-family="sans" font-size="10.00">name: A_1_20</text>
<text text-anchor="middle" x="116.38" y="-439.25" font-family="sans" font-size="10.00">unit: 2</text>
</g>
<!-- 2&#45;&gt;3 -->
<g id="edge8" class="edge">
<title>2&#45;&gt;3</title>
<path fill="none" stroke="grey" stroke-width="2" d="M116.38,-667.5C116.38,-629.76 116.38,-541.71 116.38,-491.98"/>
<polygon fill="grey" stroke="grey" stroke-width="2" points="119.88,-492.07 116.38,-482.07 112.88,-492.07 119.88,-492.07"/>
</g>
<!-- 8 -->
<g id="node9" class="node">
<title>8</title>
<path fill="none" stroke="#88d856" stroke-width="2" stroke-dasharray="5,2" d="M235,-632.5C235,-632.5 165.75,-632.5 165.75,-632.5 159.75,-632.5 153.75,-626.5 153.75,-620.5 153.75,-620.5 153.75,-608.5 153.75,-608.5 153.75,-602.5 159.75,-596.5 165.75,-596.5 165.75,-596.5 235,-596.5 235,-596.5 241,-596.5 247,-602.5 247,-608.5 247,-608.5 247,-620.5 247,-620.5 247,-626.5 241,-632.5 235,-632.5"/>
<text text-anchor="middle" x="200.38" y="-617.75" font-family="sans" font-size="10.00">bwa_map</text>
<text text-anchor="middle" x="200.38" y="-605" font-family="sans" font-size="10.00">sample: A_1_20</text>
</g>
<!-- 2&#45;&gt;8 -->
<g id="edge14" class="edge">
<title>2&#45;&gt;8</title>
<path fill="none" stroke="grey" stroke-width="2" d="M137.57,-667.84C147.15,-659.86 158.65,-650.27 169.19,-641.49"/>
<polygon fill="grey" stroke="grey" stroke-width="2" points="171.13,-644.43 176.57,-635.34 166.64,-639.05 171.13,-644.43"/>
</g>
<!-- 3&#45;&gt;0 -->
<g id="edge2" class="edge">
<title>3&#45;&gt;0</title>
<path fill="none" stroke="grey" stroke-width="2" d="M110.26,-431.13C103.15,-402.33 92.38,-351.38 92.38,-307 92.38,-307 92.38,-307 92.38,-161 92.38,-118.34 116.92,-74.49 135.85,-47.02"/>
<polygon fill="grey" stroke="grey" stroke-width="2" points="138.54,-49.27 141.51,-39.1 132.84,-45.2 138.54,-49.27"/>
</g>
<!-- 4 -->
<g id="node5" class="node">
<title>4</title>
<path fill="none" stroke="#ced856" stroke-width="2" stroke-dasharray="5,2" d="M216.88,-324C216.88,-324 143.88,-324 143.88,-324 137.88,-324 131.88,-318 131.88,-312 131.88,-312 131.88,-300 131.88,-300 131.88,-294 137.88,-288 143.88,-288 143.88,-288 216.88,-288 216.88,-288 222.88,-288 228.88,-294 228.88,-300 228.88,-300 228.88,-312 228.88,-312 228.88,-318 222.88,-324 216.88,-324"/>
<text text-anchor="middle" x="180.38" y="-302.88" font-family="sans" font-size="10.00">haplotype_caller</text>
</g>
<!-- 4&#45;&gt;0 -->
<g id="edge3" class="edge">
<title>4&#45;&gt;0</title>
<path fill="none" stroke="grey" stroke-width="2" d="M175.47,-287.24C165.29,-248.37 143.31,-152.78 149.38,-72 149.93,-64.58 150.92,-56.62 152.02,-49.18"/>
<polygon fill="grey" stroke="grey" stroke-width="2" points="155.43,-50.01 153.56,-39.58 148.52,-48.9 155.43,-50.01"/>
</g>
<!-- 12 -->
<g id="node13" class="node">
<title>12</title>
<path fill="none" stroke="#56d8a9" stroke-width="2" stroke-dasharray="5,2" d="M247,-252C247,-252 207.75,-252 207.75,-252 201.75,-252 195.75,-246 195.75,-240 195.75,-240 195.75,-228 195.75,-228 195.75,-222 201.75,-216 207.75,-216 207.75,-216 247,-216 247,-216 253,-216 259,-222 259,-228 259,-228 259,-240 259,-240 259,-246 253,-252 247,-252"/>
<text text-anchor="middle" x="227.38" y="-230.88" font-family="sans" font-size="10.00">compress</text>
</g>
<!-- 4&#45;&gt;12 -->
<g id="edge19" class="edge">
<title>4&#45;&gt;12</title>
<path fill="none" stroke="grey" stroke-width="2" d="M192.24,-287.34C197.1,-280.1 202.85,-271.53 208.27,-263.45"/>
<polygon fill="grey" stroke="grey" stroke-width="2" points="211,-265.67 213.67,-255.41 205.19,-261.77 211,-265.67"/>
</g>
<!-- 5 -->
<g id="node6" class="node">
<title>5</title>
<path fill="none" stroke="#56d86b" stroke-width="2" stroke-dasharray="5,2" d="M262,-396C262,-396 192.75,-396 192.75,-396 186.75,-396 180.75,-390 180.75,-384 180.75,-384 180.75,-372 180.75,-372 180.75,-366 186.75,-360 192.75,-360 192.75,-360 262,-360 262,-360 268,-360 274,-366 274,-372 274,-372 274,-384 274,-384 274,-390 268,-396 262,-396"/>
<text text-anchor="middle" x="227.38" y="-374.88" font-family="sans" font-size="10.00">samtools_index</text>
</g>
<!-- 5&#45;&gt;4 -->
<g id="edge9" class="edge">
<title>5&#45;&gt;4</title>
<path fill="none" stroke="grey" stroke-width="2" d="M215.51,-359.34C210.65,-352.1 204.9,-343.53 199.48,-335.45"/>
<polygon fill="grey" stroke="grey" stroke-width="2" points="202.56,-333.77 194.08,-327.41 196.75,-337.67 202.56,-333.77"/>
</g>
<!-- 6 -->
<g id="node7" class="node">
<title>6</title>
<path fill="none" stroke="#68d856" stroke-width="2" stroke-dasharray="5,2" d="M263.88,-473.12C263.88,-473.12 190.88,-473.12 190.88,-473.12 184.88,-473.12 178.88,-467.12 178.88,-461.12 178.88,-461.12 178.88,-449.12 178.88,-449.12 178.88,-443.12 184.88,-437.12 190.88,-437.12 190.88,-437.12 263.88,-437.12 263.88,-437.12 269.88,-437.12 275.88,-443.12 275.88,-449.12 275.88,-449.12 275.88,-461.12 275.88,-461.12 275.88,-467.12 269.88,-473.12 263.88,-473.12"/>
<text text-anchor="middle" x="227.38" y="-452" font-family="sans" font-size="10.00">mark_duplicates</text>
</g>
<!-- 6&#45;&gt;4 -->
<g id="edge10" class="edge">
<title>6&#45;&gt;4</title>
<path fill="none" stroke="grey" stroke-width="2" d="M202.96,-436.3C191,-426.03 177.82,-411.98 171.38,-396 163.88,-377.41 166.23,-354.93 170.4,-337.22"/>
<polygon fill="grey" stroke="grey" stroke-width="2" points="173.75,-338.24 173.02,-327.67 167,-336.39 173.75,-338.24"/>
</g>
<!-- 6&#45;&gt;5 -->
<g id="edge11" class="edge">
<title>6&#45;&gt;5</title>
<path fill="none" stroke="grey" stroke-width="2" d="M227.38,-436.32C227.38,-428.43 227.38,-418.9 227.38,-409.91"/>
<polygon fill="grey" stroke="grey" stroke-width="2" points="230.88,-409.96 227.38,-399.96 223.88,-409.96 230.88,-409.96"/>
</g>
<!-- 9 -->
<g id="node10" class="node">
<title>9</title>
<path fill="none" stroke="#56d8d0" stroke-width="2" stroke-dasharray="5,2" d="M325.38,-324C325.38,-324 279.38,-324 279.38,-324 273.38,-324 267.38,-318 267.38,-312 267.38,-312 267.38,-300 267.38,-300 267.38,-294 273.38,-288 279.38,-288 279.38,-288 325.38,-288 325.38,-288 331.38,-288 337.38,-294 337.38,-300 337.38,-300 337.38,-312 337.38,-312 337.38,-318 331.38,-324 325.38,-324"/>
<text text-anchor="middle" x="302.38" y="-302.88" font-family="sans" font-size="10.00">free_bayes</text>
</g>
<!-- 6&#45;&gt;9 -->
<g id="edge15" class="edge">
<title>6&#45;&gt;9</title>
<path fill="none" stroke="grey" stroke-width="2" d="M249.9,-436.19C261.61,-425.69 275.15,-411.47 283.38,-396 292.96,-377.97 297.71,-355.46 300.06,-337.59"/>
<polygon fill="grey" stroke="grey" stroke-width="2" points="303.54,-338.03 301.13,-327.71 296.58,-337.27 303.54,-338.03"/>
</g>
<!-- 7 -->
<g id="node8" class="node">
<title>7</title>
<path fill="none" stroke="#d85656" stroke-width="2" stroke-dasharray="5,2" d="M237.25,-555.38C237.25,-555.38 199.5,-555.38 199.5,-555.38 193.5,-555.38 187.5,-549.38 187.5,-543.38 187.5,-543.38 187.5,-531.38 187.5,-531.38 187.5,-525.38 193.5,-519.38 199.5,-519.38 199.5,-519.38 237.25,-519.38 237.25,-519.38 243.25,-519.38 249.25,-525.38 249.25,-531.38 249.25,-531.38 249.25,-543.38 249.25,-543.38 249.25,-549.38 243.25,-555.38 237.25,-555.38"/>
<text text-anchor="middle" x="218.38" y="-534.25" font-family="sans" font-size="10.00">sort_bam</text>
</g>
<!-- 7&#45;&gt;6 -->
<g id="edge12" class="edge">
<title>7&#45;&gt;6</title>
<path fill="none" stroke="grey" stroke-width="2" d="M220.37,-518.56C221.42,-509.21 222.74,-497.49 223.94,-486.74"/>
<polygon fill="grey" stroke="grey" stroke-width="2" points="227.41,-487.22 225.05,-476.89 220.45,-486.44 227.41,-487.22"/>
</g>
<!-- 8&#45;&gt;7 -->
<g id="edge13" class="edge">
<title>8&#45;&gt;7</title>
<path fill="none" stroke="grey" stroke-width="2" d="M204.64,-595.7C206.55,-587.71 208.87,-578.05 211.05,-568.96"/>
<polygon fill="grey" stroke="grey" stroke-width="2" points="214.45,-569.8 213.37,-559.25 207.64,-568.16 214.45,-569.8"/>
</g>
<!-- 9&#45;&gt;0 -->
<g id="edge4" class="edge">
<title>9&#45;&gt;0</title>
<path fill="none" stroke="grey" stroke-width="2" d="M309,-287.19C323.35,-245.26 352.42,-138.82 305.38,-72 281.2,-37.67 232.63,-25.46 197.72,-21.18"/>
<polygon fill="grey" stroke="grey" stroke-width="2" points="198.4,-17.73 188.1,-20.21 197.69,-24.7 198.4,-17.73"/>
</g>
<!-- 9&#45;&gt;12 -->
<g id="edge18" class="edge">
<title>9&#45;&gt;12</title>
<path fill="none" stroke="grey" stroke-width="2" d="M283.45,-287.34C275.08,-279.52 265.05,-270.16 255.8,-261.53"/>
<polygon fill="grey" stroke="grey" stroke-width="2" points="258.47,-259.23 248.77,-254.97 253.69,-264.35 258.47,-259.23"/>
</g>
<!-- 10 -->
<g id="node11" class="node">
<title>10</title>
<path fill="none" stroke="#d87556" stroke-width="2" stroke-dasharray="5,2" d="M200.38,-108C200.38,-108 170.38,-108 170.38,-108 164.38,-108 158.38,-102 158.38,-96 158.38,-96 158.38,-84 158.38,-84 158.38,-78 164.38,-72 170.38,-72 170.38,-72 200.38,-72 200.38,-72 206.38,-72 212.38,-78 212.38,-84 212.38,-84 212.38,-96 212.38,-96 212.38,-102 206.38,-108 200.38,-108"/>
<text text-anchor="middle" x="185.38" y="-86.88" font-family="sans" font-size="10.00">index</text>
</g>
<!-- 10&#45;&gt;0 -->
<g id="edge5" class="edge">
<title>10&#45;&gt;0</title>
<path fill="none" stroke="grey" stroke-width="2" d="M178.31,-71.34C175.58,-64.51 172.38,-56.5 169.31,-48.83"/>
<polygon fill="grey" stroke="grey" stroke-width="2" points="172.62,-47.7 165.66,-39.71 166.12,-50.3 172.62,-47.7"/>
</g>
<!-- 11 -->
<g id="node12" class="node">
<title>11</title>
<path fill="none" stroke="#d8bc56" stroke-width="2" stroke-dasharray="5,2" d="M242.38,-180C242.38,-180 212.38,-180 212.38,-180 206.38,-180 200.38,-174 200.38,-168 200.38,-168 200.38,-156 200.38,-156 200.38,-150 206.38,-144 212.38,-144 212.38,-144 242.38,-144 242.38,-144 248.38,-144 254.38,-150 254.38,-156 254.38,-156 254.38,-168 254.38,-168 254.38,-174 248.38,-180 242.38,-180"/>
<text text-anchor="middle" x="227.38" y="-158.88" font-family="sans" font-size="10.00">sort</text>
</g>
<!-- 11&#45;&gt;10 -->
<g id="edge16" class="edge">
<title>11&#45;&gt;10</title>
<path fill="none" stroke="grey" stroke-width="2" d="M216.78,-143.34C212.53,-136.26 207.53,-127.92 202.78,-120"/>
<polygon fill="grey" stroke="grey" stroke-width="2" points="205.82,-118.27 197.67,-111.5 199.82,-121.87 205.82,-118.27"/>
</g>
<!-- 13 -->
<g id="node14" class="node">
<title>13</title>
<path fill="none" stroke="#56c1d8" stroke-width="2" stroke-dasharray="5,2" d="M284.5,-108C284.5,-108 242.25,-108 242.25,-108 236.25,-108 230.25,-102 230.25,-96 230.25,-96 230.25,-84 230.25,-84 230.25,-78 236.25,-72 242.25,-72 242.25,-72 284.5,-72 284.5,-72 290.5,-72 296.5,-78 296.5,-84 296.5,-84 296.5,-96 296.5,-96 296.5,-102 290.5,-108 284.5,-108"/>
<text text-anchor="middle" x="263.38" y="-86.88" font-family="sans" font-size="10.00">divide_vcf</text>
</g>
<!-- 11&#45;&gt;13 -->
<g id="edge20" class="edge">
<title>11&#45;&gt;13</title>
<path fill="none" stroke="grey" stroke-width="2" d="M236.46,-143.34C240.06,-136.34 244.29,-128.12 248.32,-120.28"/>
<polygon fill="grey" stroke="grey" stroke-width="2" points="251.32,-122.09 252.78,-111.59 245.1,-118.89 251.32,-122.09"/>
</g>
<!-- 12&#45;&gt;11 -->
<g id="edge17" class="edge">
<title>12&#45;&gt;11</title>
<path fill="none" stroke="grey" stroke-width="2" d="M227.38,-215.34C227.38,-208.75 227.38,-201.08 227.38,-193.67"/>
<polygon fill="grey" stroke="grey" stroke-width="2" points="230.88,-193.93 227.38,-183.93 223.88,-193.93 230.88,-193.93"/>
</g>
<!-- 13&#45;&gt;0 -->
<g id="edge6" class="edge">
<title>13&#45;&gt;0</title>
<path fill="none" stroke="grey" stroke-width="2" d="M236.35,-71.15C223.77,-62.84 208.59,-52.82 194.91,-43.79"/>
<polygon fill="grey" stroke="grey" stroke-width="2" points="197.15,-41.07 186.87,-38.48 193.29,-46.91 197.15,-41.07"/>
</g>
</g>
</svg>
