<?xml version="1.0" encoding="UTF-8" standalone="no"?>
<!DOCTYPE svg PUBLIC "-//W3C//DTD SVG 1.1//EN"
 "http://www.w3.org/Graphics/SVG/1.1/DTD/svg11.dtd">
<!-- Generated by graphviz version 9.0.0 (20231125.0833)
 -->
<!-- Title: snakemake_dag Pages: 1 -->
<svg width="623pt" height="785pt"
 viewBox="0.00 0.00 623.00 784.50" xmlns="http://www.w3.org/2000/svg" xmlns:xlink="http://www.w3.org/1999/xlink">
<g id="graph0" class="graph" transform="scale(1 1) rotate(0) translate(4 780.5)">
<title>snakemake_dag</title>
<polygon fill="white" stroke="none" points="-4,4 -4,-780.5 619,-780.5 619,4 -4,4"/>
<!-- 0 -->
<g id="node1" class="node">
<title>0</title>
<path fill="none" stroke="#56d8a9" stroke-width="2" d="M311.5,-36C311.5,-36 281.5,-36 281.5,-36 275.5,-36 269.5,-30 269.5,-24 269.5,-24 269.5,-12 269.5,-12 269.5,-6 275.5,0 281.5,0 281.5,0 311.5,0 311.5,0 317.5,0 323.5,-6 323.5,-12 323.5,-12 323.5,-24 323.5,-24 323.5,-30 317.5,-36 311.5,-36"/>
<text text-anchor="middle" x="296.5" y="-14.88" font-family="sans" font-size="10.00">all</text>
</g>
<!-- 1 -->
<g id="node2" class="node">
<title>1</title>
<path fill="none" stroke="#d85656" stroke-width="2" stroke-dasharray="5,2" d="M127,-632.5C127,-632.5 12,-632.5 12,-632.5 6,-632.5 0,-626.5 0,-620.5 0,-620.5 0,-598.25 0,-598.25 0,-592.25 6,-586.25 12,-586.25 12,-586.25 127,-586.25 127,-586.25 133,-586.25 139,-592.25 139,-598.25 139,-598.25 139,-620.5 139,-620.5 139,-626.5 133,-632.5 127,-632.5"/>
<text text-anchor="middle" x="69.5" y="-619" font-family="sans" font-size="10.00">quality_control</text>
<text text-anchor="middle" x="69.5" y="-606.25" font-family="sans" font-size="10.00">name: C3FGNACXX_1_15</text>
<text text-anchor="middle" x="69.5" y="-593.5" font-family="sans" font-size="10.00">unit: 1</text>
</g>
<!-- 1&#45;&gt;0 -->
<g id="edge1" class="edge">
<title>1&#45;&gt;0</title>
<path fill="none" stroke="grey" stroke-width="2" d="M69.5,-585.44C69.5,-554.8 69.5,-498.81 69.5,-451 69.5,-451 69.5,-451 69.5,-161 69.5,-118.66 72.14,-100.46 103.5,-72 145.62,-33.78 212.77,-22.77 255.73,-19.79"/>
<polygon fill="grey" stroke="grey" stroke-width="2" points="255.69,-23.3 265.48,-19.26 255.3,-16.31 255.69,-23.3"/>
</g>
<!-- 2 -->
<g id="node3" class="node">
<title>2</title>
<path fill="none" stroke="#5673d8" stroke-width="2" stroke-dasharray="5,2" d="M182.5,-776.5C182.5,-776.5 152.5,-776.5 152.5,-776.5 146.5,-776.5 140.5,-770.5 140.5,-764.5 140.5,-764.5 140.5,-752.5 140.5,-752.5 140.5,-746.5 146.5,-740.5 152.5,-740.5 152.5,-740.5 182.5,-740.5 182.5,-740.5 188.5,-740.5 194.5,-746.5 194.5,-752.5 194.5,-752.5 194.5,-764.5 194.5,-764.5 194.5,-770.5 188.5,-776.5 182.5,-776.5"/>
<text text-anchor="middle" x="167.5" y="-755.38" font-family="sans" font-size="10.00">unzip</text>
</g>
<!-- 2&#45;&gt;1 -->
<g id="edge9" class="edge">
<title>2&#45;&gt;1</title>
<path fill="none" stroke="grey" stroke-width="2" d="M155.68,-739.75C139.92,-716.1 111.73,-673.78 91.89,-643.99"/>
<polygon fill="grey" stroke="grey" stroke-width="2" points="94.87,-642.16 86.42,-635.77 89.05,-646.04 94.87,-642.16"/>
</g>
<!-- 3 -->
<g id="node4" class="node">
<title>3</title>
<path fill="none" stroke="#d85656" stroke-width="2" stroke-dasharray="5,2" d="M225,-550.25C225,-550.25 110,-550.25 110,-550.25 104,-550.25 98,-544.25 98,-538.25 98,-538.25 98,-516 98,-516 98,-510 104,-504 110,-504 110,-504 225,-504 225,-504 231,-504 237,-510 237,-516 237,-516 237,-538.25 237,-538.25 237,-544.25 231,-550.25 225,-550.25"/>
<text text-anchor="middle" x="167.5" y="-536.75" font-family="sans" font-size="10.00">quality_control</text>
<text text-anchor="middle" x="167.5" y="-524" font-family="sans" font-size="10.00">name: C3FGNACXX_1_15</text>
<text text-anchor="middle" x="167.5" y="-511.25" font-family="sans" font-size="10.00">unit: 2</text>
</g>
<!-- 2&#45;&gt;3 -->
<g id="edge10" class="edge">
<title>2&#45;&gt;3</title>
<path fill="none" stroke="grey" stroke-width="2" d="M167.5,-739.5C167.5,-701.76 167.5,-613.71 167.5,-563.98"/>
<polygon fill="grey" stroke="grey" stroke-width="2" points="171,-564.07 167.5,-554.07 164,-564.07 171,-564.07"/>
</g>
<!-- 10 -->
<g id="node11" class="node">
<title>10</title>
<path fill="none" stroke="#d8ac56" stroke-width="2" stroke-dasharray="5,2" d="M367.12,-704.5C367.12,-704.5 243.88,-704.5 243.88,-704.5 237.88,-704.5 231.88,-698.5 231.88,-692.5 231.88,-692.5 231.88,-680.5 231.88,-680.5 231.88,-674.5 237.88,-668.5 243.88,-668.5 243.88,-668.5 367.12,-668.5 367.12,-668.5 373.12,-668.5 379.12,-674.5 379.12,-680.5 379.12,-680.5 379.12,-692.5 379.12,-692.5 379.12,-698.5 373.12,-704.5 367.12,-704.5"/>
<text text-anchor="middle" x="305.5" y="-689.75" font-family="sans" font-size="10.00">bwa_map</text>
<text text-anchor="middle" x="305.5" y="-677" font-family="sans" font-size="10.00">sample: C3FGNACXX_1_15</text>
</g>
<!-- 2&#45;&gt;10 -->
<g id="edge16" class="edge">
<title>2&#45;&gt;10</title>
<path fill="none" stroke="grey" stroke-width="2" d="M195.43,-743.33C213.63,-734.1 237.84,-721.82 258.92,-711.13"/>
<polygon fill="grey" stroke="grey" stroke-width="2" points="260.21,-714.4 267.55,-706.75 257.05,-708.15 260.21,-714.4"/>
</g>
<!-- 3&#45;&gt;0 -->
<g id="edge2" class="edge">
<title>3&#45;&gt;0</title>
<path fill="none" stroke="grey" stroke-width="2" d="M151.74,-503.35C133.96,-475.39 107.5,-425.89 107.5,-379 107.5,-379 107.5,-379 107.5,-161 107.5,-120.55 99.24,-101.88 126.5,-72 159.58,-35.73 217.02,-24.07 255.88,-20.43"/>
<polygon fill="grey" stroke="grey" stroke-width="2" points="256.05,-23.93 265.76,-19.69 255.53,-16.95 256.05,-23.93"/>
</g>
<!-- 4 -->
<g id="node5" class="node">
<title>4</title>
<path fill="none" stroke="#56d892" stroke-width="2" stroke-dasharray="5,2" d="M237.25,-108C237.25,-108 147.75,-108 147.75,-108 141.75,-108 135.75,-102 135.75,-96 135.75,-96 135.75,-84 135.75,-84 135.75,-78 141.75,-72 147.75,-72 147.75,-72 237.25,-72 237.25,-72 243.25,-72 249.25,-78 249.25,-84 249.25,-84 249.25,-96 249.25,-96 249.25,-102 243.25,-108 237.25,-108"/>
<text text-anchor="middle" x="192.5" y="-86.88" font-family="sans" font-size="10.00">index_bwa_genome</text>
</g>
<!-- 4&#45;&gt;0 -->
<g id="edge3" class="edge">
<title>4&#45;&gt;0</title>
<path fill="none" stroke="grey" stroke-width="2" d="M219.01,-71.15C231.24,-62.93 245.96,-53.02 259.27,-44.06"/>
<polygon fill="grey" stroke="grey" stroke-width="2" points="261.18,-46.99 267.52,-38.5 257.27,-41.18 261.18,-46.99"/>
</g>
<!-- 5 -->
<g id="node6" class="node">
<title>5</title>
<path fill="none" stroke="#70d856" stroke-width="2" stroke-dasharray="5,2" d="M376.62,-324C376.62,-324 262.38,-324 262.38,-324 256.38,-324 250.38,-318 250.38,-312 250.38,-312 250.38,-300 250.38,-300 250.38,-294 256.38,-288 262.38,-288 262.38,-288 376.62,-288 376.62,-288 382.62,-288 388.62,-294 388.62,-300 388.62,-300 388.62,-312 388.62,-312 388.62,-318 382.62,-324 376.62,-324"/>
<text text-anchor="middle" x="319.5" y="-302.88" font-family="sans" font-size="10.00">index_samtools_genome</text>
</g>
<!-- 5&#45;&gt;0 -->
<g id="edge4" class="edge">
<title>5&#45;&gt;0</title>
<path fill="none" stroke="grey" stroke-width="2" d="M317.65,-287.09C314.13,-252.51 306.38,-174.1 301.5,-108 300.07,-88.61 298.84,-66.82 297.96,-49.65"/>
<polygon fill="grey" stroke="grey" stroke-width="2" points="301.46,-49.58 297.46,-39.77 294.47,-49.93 301.46,-49.58"/>
</g>
<!-- 12 -->
<g id="node13" class="node">
<title>12</title>
<path fill="none" stroke="#afd856" stroke-width="2" d="M405.75,-252C405.75,-252 355.25,-252 355.25,-252 349.25,-252 343.25,-246 343.25,-240 343.25,-240 343.25,-228 343.25,-228 343.25,-222 349.25,-216 355.25,-216 355.25,-216 405.75,-216 405.75,-216 411.75,-216 417.75,-222 417.75,-228 417.75,-228 417.75,-240 417.75,-240 417.75,-246 411.75,-252 405.75,-252"/>
<text text-anchor="middle" x="380.5" y="-230.88" font-family="sans" font-size="10.00">deepvariant</text>
</g>
<!-- 5&#45;&gt;12 -->
<g id="edge18" class="edge">
<title>5&#45;&gt;12</title>
<path fill="none" stroke="grey" stroke-width="2" d="M334.89,-287.34C341.42,-279.85 349.17,-270.95 356.42,-262.63"/>
<polygon fill="grey" stroke="grey" stroke-width="2" points="358.98,-265.02 362.91,-255.18 353.7,-260.42 358.98,-265.02"/>
</g>
<!-- 6 -->
<g id="node7" class="node">
<title>6</title>
<path fill="none" stroke="#5692d8" stroke-width="2" stroke-dasharray="5,2" d="M603,-396C603,-396 530,-396 530,-396 524,-396 518,-390 518,-384 518,-384 518,-372 518,-372 518,-366 524,-360 530,-360 530,-360 603,-360 603,-360 609,-360 615,-366 615,-372 615,-372 615,-384 615,-384 615,-390 609,-396 603,-396"/>
<text text-anchor="middle" x="566.5" y="-374.88" font-family="sans" font-size="10.00">haplotype_caller</text>
</g>
<!-- 6&#45;&gt;0 -->
<g id="edge5" class="edge">
<title>6&#45;&gt;0</title>
<path fill="none" stroke="grey" stroke-width="2" d="M575.62,-359.14C588.24,-332.73 609.5,-281.36 609.5,-235 609.5,-235 609.5,-235 609.5,-161 609.5,-42.74 421.92,-22.48 337.18,-19.36"/>
<polygon fill="grey" stroke="grey" stroke-width="2" points="337.4,-15.87 327.3,-19.08 337.2,-22.86 337.4,-15.87"/>
</g>
<!-- 16 -->
<g id="node17" class="node">
<title>16</title>
<path fill="none" stroke="#56d873" stroke-width="2" stroke-dasharray="5,2" d="M569.12,-324C569.12,-324 529.88,-324 529.88,-324 523.88,-324 517.88,-318 517.88,-312 517.88,-312 517.88,-300 517.88,-300 517.88,-294 523.88,-288 529.88,-288 529.88,-288 569.12,-288 569.12,-288 575.12,-288 581.12,-294 581.12,-300 581.12,-300 581.12,-312 581.12,-312 581.12,-318 575.12,-324 569.12,-324"/>
<text text-anchor="middle" x="549.5" y="-302.88" font-family="sans" font-size="10.00">compress</text>
</g>
<!-- 6&#45;&gt;16 -->
<g id="edge30" class="edge">
<title>6&#45;&gt;16</title>
<path fill="none" stroke="grey" stroke-width="2" d="M562.21,-359.34C560.59,-352.67 558.7,-344.89 556.88,-337.39"/>
<polygon fill="grey" stroke="grey" stroke-width="2" points="560.32,-336.73 554.56,-327.84 553.52,-338.39 560.32,-336.73"/>
</g>
<!-- 7 -->
<g id="node8" class="node">
<title>7</title>
<path fill="none" stroke="#56c9d8" stroke-width="2" stroke-dasharray="5,2" d="M524.12,-468C524.12,-468 454.88,-468 454.88,-468 448.88,-468 442.88,-462 442.88,-456 442.88,-456 442.88,-444 442.88,-444 442.88,-438 448.88,-432 454.88,-432 454.88,-432 524.12,-432 524.12,-432 530.12,-432 536.12,-438 536.12,-444 536.12,-444 536.12,-456 536.12,-456 536.12,-462 530.12,-468 524.12,-468"/>
<text text-anchor="middle" x="489.5" y="-446.88" font-family="sans" font-size="10.00">samtools_index</text>
</g>
<!-- 7&#45;&gt;6 -->
<g id="edge11" class="edge">
<title>7&#45;&gt;6</title>
<path fill="none" stroke="grey" stroke-width="2" d="M508.93,-431.34C517.53,-423.52 527.82,-414.16 537.31,-405.53"/>
<polygon fill="grey" stroke="grey" stroke-width="2" points="539.52,-408.25 544.57,-398.94 534.81,-403.07 539.52,-408.25"/>
</g>
<!-- 7&#45;&gt;12 -->
<g id="edge20" class="edge">
<title>7&#45;&gt;12</title>
<path fill="none" stroke="grey" stroke-width="2" d="M487.28,-431.17C484.64,-412.88 479.43,-383.82 470.5,-360 457.65,-325.72 452.12,-317.54 430.5,-288 423.91,-279 415.94,-269.91 408.3,-261.87"/>
<polygon fill="grey" stroke="grey" stroke-width="2" points="410.89,-259.51 401.4,-254.81 405.89,-264.41 410.89,-259.51"/>
</g>
<!-- 8 -->
<g id="node9" class="node">
<title>8</title>
<path fill="none" stroke="#c6d856" stroke-width="2" stroke-dasharray="5,2" d="M451,-545.12C451,-545.12 378,-545.12 378,-545.12 372,-545.12 366,-539.12 366,-533.12 366,-533.12 366,-521.12 366,-521.12 366,-515.12 372,-509.12 378,-509.12 378,-509.12 451,-509.12 451,-509.12 457,-509.12 463,-515.12 463,-521.12 463,-521.12 463,-533.12 463,-533.12 463,-539.12 457,-545.12 451,-545.12"/>
<text text-anchor="middle" x="414.5" y="-524" font-family="sans" font-size="10.00">mark_duplicates</text>
</g>
<!-- 8&#45;&gt;6 -->
<g id="edge12" class="edge">
<title>8&#45;&gt;6</title>
<path fill="none" stroke="grey" stroke-width="2" d="M463.78,-515.74C491.65,-507.38 524.93,-492.8 545.5,-468 558.97,-451.76 564.12,-428.39 565.95,-409.67"/>
<polygon fill="grey" stroke="grey" stroke-width="2" points="569.44,-409.97 566.58,-399.77 562.45,-409.52 569.44,-409.97"/>
</g>
<!-- 8&#45;&gt;7 -->
<g id="edge13" class="edge">
<title>8&#45;&gt;7</title>
<path fill="none" stroke="grey" stroke-width="2" d="M432.27,-508.32C441.27,-499.31 452.38,-488.18 462.41,-478.13"/>
<polygon fill="grey" stroke="grey" stroke-width="2" points="464.87,-480.63 469.46,-471.08 459.91,-475.68 464.87,-480.63"/>
</g>
<!-- 11 -->
<g id="node12" class="node">
<title>11</title>
<path fill="none" stroke="#59d856" stroke-width="2" stroke-dasharray="5,2" d="M449.5,-396C449.5,-396 403.5,-396 403.5,-396 397.5,-396 391.5,-390 391.5,-384 391.5,-384 391.5,-372 391.5,-372 391.5,-366 397.5,-360 403.5,-360 403.5,-360 449.5,-360 449.5,-360 455.5,-360 461.5,-366 461.5,-372 461.5,-372 461.5,-384 461.5,-384 461.5,-390 455.5,-396 449.5,-396"/>
<text text-anchor="middle" x="426.5" y="-374.88" font-family="sans" font-size="10.00">free_bayes</text>
</g>
<!-- 8&#45;&gt;11 -->
<g id="edge17" class="edge">
<title>8&#45;&gt;11</title>
<path fill="none" stroke="grey" stroke-width="2" d="M415.95,-508.38C417.94,-483.97 421.55,-439.66 423.99,-409.78"/>
<polygon fill="grey" stroke="grey" stroke-width="2" points="427.48,-410.08 424.8,-399.83 420.5,-409.51 427.48,-410.08"/>
</g>
<!-- 8&#45;&gt;12 -->
<g id="edge19" class="edge">
<title>8&#45;&gt;12</title>
<path fill="none" stroke="grey" stroke-width="2" d="M408.65,-508.28C400.85,-483.44 387.45,-436.88 382.5,-396 380.58,-380.12 379.36,-375.69 382.5,-360 385.9,-343 394.1,-341 397.5,-324 400.64,-308.31 399.97,-303.81 397.5,-288 396.31,-280.39 394.21,-272.38 391.89,-264.95"/>
<polygon fill="grey" stroke="grey" stroke-width="2" points="395.26,-264.01 388.72,-255.68 388.64,-266.27 395.26,-264.01"/>
</g>
<!-- 9 -->
<g id="node10" class="node">
<title>9</title>
<path fill="none" stroke="#56a9d8" stroke-width="2" stroke-dasharray="5,2" d="M396.38,-627.38C396.38,-627.38 358.62,-627.38 358.62,-627.38 352.62,-627.38 346.62,-621.38 346.62,-615.38 346.62,-615.38 346.62,-603.38 346.62,-603.38 346.62,-597.38 352.62,-591.38 358.62,-591.38 358.62,-591.38 396.38,-591.38 396.38,-591.38 402.38,-591.38 408.38,-597.38 408.38,-603.38 408.38,-603.38 408.38,-615.38 408.38,-615.38 408.38,-621.38 402.38,-627.38 396.38,-627.38"/>
<text text-anchor="middle" x="377.5" y="-606.25" font-family="sans" font-size="10.00">sort_bam</text>
</g>
<!-- 9&#45;&gt;8 -->
<g id="edge14" class="edge">
<title>9&#45;&gt;8</title>
<path fill="none" stroke="grey" stroke-width="2" d="M385.71,-590.56C390.17,-580.9 395.79,-568.71 400.88,-557.67"/>
<polygon fill="grey" stroke="grey" stroke-width="2" points="404.04,-559.18 405.04,-548.63 397.68,-556.25 404.04,-559.18"/>
</g>
<!-- 10&#45;&gt;9 -->
<g id="edge15" class="edge">
<title>10&#45;&gt;9</title>
<path fill="none" stroke="grey" stroke-width="2" d="M322.56,-667.7C331.2,-658.69 341.86,-647.56 351.49,-637.51"/>
<polygon fill="grey" stroke="grey" stroke-width="2" points="353.82,-640.14 358.22,-630.5 348.77,-635.29 353.82,-640.14"/>
</g>
<!-- 11&#45;&gt;0 -->
<g id="edge6" class="edge">
<title>11&#45;&gt;0</title>
<path fill="none" stroke="grey" stroke-width="2" d="M390.84,-371.92C342.31,-364.18 259.45,-347.81 241.5,-324 231.87,-311.22 238.94,-303.79 241.5,-288 255.01,-204.76 287.99,-191.24 301.5,-108 304.63,-88.71 303.46,-66.8 301.46,-49.55"/>
<polygon fill="grey" stroke="grey" stroke-width="2" points="304.96,-49.29 300.16,-39.85 298.02,-50.23 304.96,-49.29"/>
</g>
<!-- 11&#45;&gt;16 -->
<g id="edge29" class="edge">
<title>11&#45;&gt;16</title>
<path fill="none" stroke="grey" stroke-width="2" d="M457.86,-359.15C472.75,-350.68 490.77,-340.42 506.88,-331.25"/>
<polygon fill="grey" stroke="grey" stroke-width="2" points="508.61,-334.3 515.57,-326.31 505.15,-328.21 508.61,-334.3"/>
</g>
<!-- 12&#45;&gt;0 -->
<g id="edge7" class="edge">
<title>12&#45;&gt;0</title>
<path fill="none" stroke="grey" stroke-width="2" d="M376.38,-215.07C369.08,-184.75 352.45,-121.8 329.5,-72 325.66,-63.67 320.75,-55.05 315.9,-47.25"/>
<polygon fill="grey" stroke="grey" stroke-width="2" points="318.98,-45.56 310.61,-39.07 313.1,-49.36 318.98,-45.56"/>
</g>
<!-- 13 -->
<g id="node14" class="node">
<title>13</title>
<path fill="none" stroke="#d88d56" stroke-width="2" d="M467.62,-108C467.62,-108 425.38,-108 425.38,-108 419.38,-108 413.38,-102 413.38,-96 413.38,-96 413.38,-84 413.38,-84 413.38,-78 419.38,-72 425.38,-72 425.38,-72 467.62,-72 467.62,-72 473.62,-72 479.62,-78 479.62,-84 479.62,-84 479.62,-96 479.62,-96 479.62,-102 473.62,-108 467.62,-108"/>
<text text-anchor="middle" x="446.5" y="-86.88" font-family="sans" font-size="10.00">divide_vcf</text>
</g>
<!-- 12&#45;&gt;13 -->
<g id="edge24" class="edge">
<title>12&#45;&gt;13</title>
<path fill="none" stroke="grey" stroke-width="2" d="M385,-215.04C389.97,-196.65 398.82,-167.51 410.5,-144 414.62,-135.7 419.87,-127.19 425.08,-119.48"/>
<polygon fill="grey" stroke="grey" stroke-width="2" points="427.91,-121.55 430.81,-111.36 422.18,-117.52 427.91,-121.55"/>
</g>
<!-- 14 -->
<g id="node15" class="node">
<title>14</title>
<path fill="none" stroke="#8fd856" stroke-width="2" d="M461.5,-180C461.5,-180 431.5,-180 431.5,-180 425.5,-180 419.5,-174 419.5,-168 419.5,-168 419.5,-156 419.5,-156 419.5,-150 425.5,-144 431.5,-144 431.5,-144 461.5,-144 461.5,-144 467.5,-144 473.5,-150 473.5,-156 473.5,-156 473.5,-168 473.5,-168 473.5,-174 467.5,-180 461.5,-180"/>
<text text-anchor="middle" x="446.5" y="-158.88" font-family="sans" font-size="10.00">index</text>
</g>
<!-- 12&#45;&gt;14 -->
<g id="edge27" class="edge">
<title>12&#45;&gt;14</title>
<path fill="none" stroke="grey" stroke-width="2" d="M397.15,-215.34C404.29,-207.77 412.79,-198.75 420.71,-190.35"/>
<polygon fill="grey" stroke="grey" stroke-width="2" points="423.23,-192.78 427.54,-183.1 418.14,-187.98 423.23,-192.78"/>
</g>
<!-- 13&#45;&gt;0 -->
<g id="edge8" class="edge">
<title>13&#45;&gt;0</title>
<path fill="none" stroke="grey" stroke-width="2" d="M412.46,-73.12C389.79,-62.54 359.92,-48.59 336.17,-37.51"/>
<polygon fill="grey" stroke="grey" stroke-width="2" points="337.66,-34.35 327.12,-33.29 334.7,-40.69 337.66,-34.35"/>
</g>
<!-- 14&#45;&gt;13 -->
<g id="edge21" class="edge">
<title>14&#45;&gt;13</title>
<path fill="none" stroke="grey" stroke-width="2" d="M446.5,-143.34C446.5,-136.75 446.5,-129.08 446.5,-121.67"/>
<polygon fill="grey" stroke="grey" stroke-width="2" points="450,-121.93 446.5,-111.93 443,-121.93 450,-121.93"/>
</g>
<!-- 15 -->
<g id="node16" class="node">
<title>15</title>
<path fill="none" stroke="#d87556" stroke-width="2" stroke-dasharray="5,2" d="M531.12,-252C531.12,-252 485.88,-252 485.88,-252 479.88,-252 473.88,-246 473.88,-240 473.88,-240 473.88,-228 473.88,-228 473.88,-222 479.88,-216 485.88,-216 485.88,-216 531.12,-216 531.12,-216 537.12,-216 543.12,-222 543.12,-228 543.12,-228 543.12,-240 543.12,-240 543.12,-246 537.12,-252 531.12,-252"/>
<text text-anchor="middle" x="508.5" y="-230.88" font-family="sans" font-size="10.00">sort_bayes</text>
</g>
<!-- 15&#45;&gt;13 -->
<g id="edge22" class="edge">
<title>15&#45;&gt;13</title>
<path fill="none" stroke="grey" stroke-width="2" d="M504.98,-215.01C500.98,-196.6 493.55,-167.44 482.5,-144 478.55,-135.62 473.36,-127.08 468.15,-119.37"/>
<polygon fill="grey" stroke="grey" stroke-width="2" points="471.04,-117.4 462.4,-111.26 465.33,-121.44 471.04,-117.4"/>
</g>
<!-- 15&#45;&gt;14 -->
<g id="edge25" class="edge">
<title>15&#45;&gt;14</title>
<path fill="none" stroke="grey" stroke-width="2" d="M492.85,-215.34C486.22,-207.85 478.34,-198.95 470.97,-190.63"/>
<polygon fill="grey" stroke="grey" stroke-width="2" points="473.61,-188.33 464.36,-183.17 468.37,-192.97 473.61,-188.33"/>
</g>
<!-- 16&#45;&gt;13 -->
<g id="edge23" class="edge">
<title>16&#45;&gt;13</title>
<path fill="none" stroke="grey" stroke-width="2" d="M553.51,-287.14C556.83,-268.83 559.94,-239.75 552.5,-216 539.89,-175.73 506.31,-140.16 480.29,-117.37"/>
<polygon fill="grey" stroke="grey" stroke-width="2" points="482.6,-114.74 472.71,-110.94 478.08,-120.08 482.6,-114.74"/>
</g>
<!-- 16&#45;&gt;14 -->
<g id="edge26" class="edge">
<title>16&#45;&gt;14</title>
<path fill="none" stroke="grey" stroke-width="2" d="M516.94,-292.42C498.77,-283.75 477.29,-270.43 464.5,-252 452.76,-235.07 448.31,-212.23 446.78,-193.93"/>
<polygon fill="grey" stroke="grey" stroke-width="2" points="450.28,-193.82 446.25,-184.01 443.29,-194.18 450.28,-193.82"/>
</g>
<!-- 16&#45;&gt;15 -->
<g id="edge28" class="edge">
<title>16&#45;&gt;15</title>
<path fill="none" stroke="grey" stroke-width="2" d="M539.15,-287.34C535.01,-280.26 530.13,-271.92 525.49,-264"/>
<polygon fill="grey" stroke="grey" stroke-width="2" points="528.59,-262.37 520.52,-255.51 522.55,-265.91 528.59,-262.37"/>
</g>
</g>
</svg>
