<?xml version="1.0" encoding="UTF-8" standalone="no"?>
<!DOCTYPE svg PUBLIC "-//W3C//DTD SVG 1.1//EN"
 "http://www.w3.org/Graphics/SVG/1.1/DTD/svg11.dtd">
<!-- Generated by graphviz version 9.0.0 (20231125.0833)
 -->
<!-- Title: snakemake_dag Pages: 1 -->
<svg width="118pt" height="404pt"
 viewBox="0.00 0.00 117.75 404.00" xmlns="http://www.w3.org/2000/svg" xmlns:xlink="http://www.w3.org/1999/xlink">
<g id="graph0" class="graph" transform="scale(1 1) rotate(0) translate(4 400)">
<title>snakemake_dag</title>
<polygon fill="white" stroke="none" points="-4,4 -4,-400 113.75,-400 113.75,4 -4,4"/>
<!-- 0 -->
<g id="node1" class="node">
<title>0</title>
<path fill="none" stroke="#56d8d8" stroke-width="2" d="M69.88,-36C69.88,-36 39.88,-36 39.88,-36 33.88,-36 27.88,-30 27.88,-24 27.88,-24 27.88,-12 27.88,-12 27.88,-6 33.88,0 39.88,0 39.88,0 69.88,0 69.88,0 75.88,0 81.88,-6 81.88,-12 81.88,-12 81.88,-24 81.88,-24 81.88,-30 75.88,-36 69.88,-36"/>
<text text-anchor="middle" x="54.88" y="-14.88" font-family="sans" font-size="10.00">all</text>
</g>
<!-- 1 -->
<g id="node2" class="node">
<title>1</title>
<path fill="none" stroke="#56d882" stroke-width="2" d="M77.88,-108C77.88,-108 31.88,-108 31.88,-108 25.88,-108 19.88,-102 19.88,-96 19.88,-96 19.88,-84 19.88,-84 19.88,-78 25.88,-72 31.88,-72 31.88,-72 77.88,-72 77.88,-72 83.88,-72 89.88,-78 89.88,-84 89.88,-84 89.88,-96 89.88,-96 89.88,-102 83.88,-108 77.88,-108"/>
<text text-anchor="middle" x="54.88" y="-86.88" font-family="sans" font-size="10.00">free_bayes</text>
</g>
<!-- 1&#45;&gt;0 -->
<g id="edge1" class="edge">
<title>1&#45;&gt;0</title>
<path fill="none" stroke="grey" stroke-width="2" d="M54.88,-71.34C54.88,-64.75 54.88,-57.08 54.88,-49.67"/>
<polygon fill="grey" stroke="grey" stroke-width="2" points="58.38,-49.93 54.88,-39.93 51.38,-49.93 58.38,-49.93"/>
</g>
<!-- 2 -->
<g id="node3" class="node">
<title>2</title>
<path fill="none" stroke="#56a9d8" stroke-width="2" d="M97.75,-180C97.75,-180 12,-180 12,-180 6,-180 0,-174 0,-168 0,-168 0,-156 0,-156 0,-150 6,-144 12,-144 12,-144 97.75,-144 97.75,-144 103.75,-144 109.75,-150 109.75,-156 109.75,-156 109.75,-168 109.75,-168 109.75,-174 103.75,-180 97.75,-180"/>
<text text-anchor="middle" x="54.88" y="-158.88" font-family="sans" font-size="10.00">add_or_replace_RG</text>
</g>
<!-- 2&#45;&gt;1 -->
<g id="edge2" class="edge">
<title>2&#45;&gt;1</title>
<path fill="none" stroke="grey" stroke-width="2" d="M54.88,-143.34C54.88,-136.75 54.88,-129.08 54.88,-121.67"/>
<polygon fill="grey" stroke="grey" stroke-width="2" points="58.38,-121.93 54.88,-111.93 51.38,-121.93 58.38,-121.93"/>
</g>
<!-- 3 -->
<g id="node4" class="node">
<title>3</title>
<path fill="none" stroke="#d88556" stroke-width="2" stroke-dasharray="5,2" d="M91.38,-252C91.38,-252 18.38,-252 18.38,-252 12.38,-252 6.38,-246 6.38,-240 6.38,-240 6.38,-228 6.38,-228 6.38,-222 12.38,-216 18.38,-216 18.38,-216 91.38,-216 91.38,-216 97.38,-216 103.38,-222 103.38,-228 103.38,-228 103.38,-240 103.38,-240 103.38,-246 97.38,-252 91.38,-252"/>
<text text-anchor="middle" x="54.88" y="-230.88" font-family="sans" font-size="10.00">mark_duplicates</text>
</g>
<!-- 3&#45;&gt;2 -->
<g id="edge3" class="edge">
<title>3&#45;&gt;2</title>
<path fill="none" stroke="grey" stroke-width="2" d="M54.88,-215.34C54.88,-208.75 54.88,-201.08 54.88,-193.67"/>
<polygon fill="grey" stroke="grey" stroke-width="2" points="58.38,-193.93 54.88,-183.93 51.38,-193.93 58.38,-193.93"/>
</g>
<!-- 4 -->
<g id="node5" class="node">
<title>4</title>
<path fill="none" stroke="#56d8a9" stroke-width="2" stroke-dasharray="5,2" d="M73.75,-324C73.75,-324 36,-324 36,-324 30,-324 24,-318 24,-312 24,-312 24,-300 24,-300 24,-294 30,-288 36,-288 36,-288 73.75,-288 73.75,-288 79.75,-288 85.75,-294 85.75,-300 85.75,-300 85.75,-312 85.75,-312 85.75,-318 79.75,-324 73.75,-324"/>
<text text-anchor="middle" x="54.88" y="-302.88" font-family="sans" font-size="10.00">sort_bam</text>
</g>
<!-- 4&#45;&gt;3 -->
<g id="edge4" class="edge">
<title>4&#45;&gt;3</title>
<path fill="none" stroke="grey" stroke-width="2" d="M54.88,-287.34C54.88,-280.75 54.88,-273.08 54.88,-265.67"/>
<polygon fill="grey" stroke="grey" stroke-width="2" points="58.38,-265.93 54.88,-255.93 51.38,-265.93 58.38,-265.93"/>
</g>
<!-- 5 -->
<g id="node6" class="node">
<title>5</title>
<path fill="none" stroke="#d8ac56" stroke-width="2" stroke-dasharray="5,2" d="M89.5,-396C89.5,-396 20.25,-396 20.25,-396 14.25,-396 8.25,-390 8.25,-384 8.25,-384 8.25,-372 8.25,-372 8.25,-366 14.25,-360 20.25,-360 20.25,-360 89.5,-360 89.5,-360 95.5,-360 101.5,-366 101.5,-372 101.5,-372 101.5,-384 101.5,-384 101.5,-390 95.5,-396 89.5,-396"/>
<text text-anchor="middle" x="54.88" y="-381.25" font-family="sans" font-size="10.00">bwa_map</text>
<text text-anchor="middle" x="54.88" y="-368.5" font-family="sans" font-size="10.00">sample: A_1_20</text>
</g>
<!-- 5&#45;&gt;4 -->
<g id="edge5" class="edge">
<title>5&#45;&gt;4</title>
<path fill="none" stroke="grey" stroke-width="2" d="M54.88,-359.34C54.88,-352.75 54.88,-345.08 54.88,-337.67"/>
<polygon fill="grey" stroke="grey" stroke-width="2" points="58.38,-337.93 54.88,-327.93 51.38,-337.93 58.38,-337.93"/>
</g>
</g>
</svg>
