<?xml version="1.0" encoding="UTF-8" standalone="no"?>
<!DOCTYPE svg PUBLIC "-//W3C//DTD SVG 1.1//EN"
 "http://www.w3.org/Graphics/SVG/1.1/DTD/svg11.dtd">
<!-- Generated by graphviz version 9.0.0 (20231125.0833)
 -->
<!-- Title: snakemake_dag Pages: 1 -->
<svg width="284pt" height="497pt"
 viewBox="0.00 0.00 283.88 496.50" xmlns="http://www.w3.org/2000/svg" xmlns:xlink="http://www.w3.org/1999/xlink">
<g id="graph0" class="graph" transform="scale(1 1) rotate(0) translate(4 492.5)">
<title>snakemake_dag</title>
<polygon fill="white" stroke="none" points="-4,4 -4,-492.5 279.88,-492.5 279.88,4 -4,4"/>
<!-- 0 -->
<g id="node1" class="node">
<title>0</title>
<path fill="none" stroke="#56a9d8" stroke-width="2" d="M131.38,-36C131.38,-36 101.38,-36 101.38,-36 95.38,-36 89.38,-30 89.38,-24 89.38,-24 89.38,-12 89.38,-12 89.38,-6 95.38,0 101.38,0 101.38,0 131.38,0 131.38,0 137.38,0 143.38,-6 143.38,-12 143.38,-12 143.38,-24 143.38,-24 143.38,-30 137.38,-36 131.38,-36"/>
<text text-anchor="middle" x="116.38" y="-14.88" font-family="sans" font-size="10.00">all</text>
</g>
<!-- 1 -->
<g id="node2" class="node">
<title>1</title>
<path fill="none" stroke="#5682d8" stroke-width="2" d="M76.75,-344.5C76.75,-344.5 12,-344.5 12,-344.5 6,-344.5 0,-338.5 0,-332.5 0,-332.5 0,-310.25 0,-310.25 0,-304.25 6,-298.25 12,-298.25 12,-298.25 76.75,-298.25 76.75,-298.25 82.75,-298.25 88.75,-304.25 88.75,-310.25 88.75,-310.25 88.75,-332.5 88.75,-332.5 88.75,-338.5 82.75,-344.5 76.75,-344.5"/>
<text text-anchor="middle" x="44.38" y="-331" font-family="sans" font-size="10.00">quality_control</text>
<text text-anchor="middle" x="44.38" y="-318.25" font-family="sans" font-size="10.00">name: A_1_20</text>
<text text-anchor="middle" x="44.38" y="-305.5" font-family="sans" font-size="10.00">unit: 1</text>
</g>
<!-- 1&#45;&gt;0 -->
<g id="edge1" class="edge">
<title>1&#45;&gt;0</title>
<path fill="none" stroke="grey" stroke-width="2" d="M47.99,-297.46C51.46,-276.24 57.1,-243.85 63.38,-216 76.8,-156.35 96.23,-87.56 107.45,-49.08"/>
<polygon fill="grey" stroke="grey" stroke-width="2" points="110.74,-50.29 110.2,-39.71 104.03,-48.32 110.74,-50.29"/>
</g>
<!-- 2 -->
<g id="node3" class="node">
<title>2</title>
<path fill="none" stroke="#d8ac56" stroke-width="2" d="M131.38,-488.5C131.38,-488.5 101.38,-488.5 101.38,-488.5 95.38,-488.5 89.38,-482.5 89.38,-476.5 89.38,-476.5 89.38,-464.5 89.38,-464.5 89.38,-458.5 95.38,-452.5 101.38,-452.5 101.38,-452.5 131.38,-452.5 131.38,-452.5 137.38,-452.5 143.38,-458.5 143.38,-464.5 143.38,-464.5 143.38,-476.5 143.38,-476.5 143.38,-482.5 137.38,-488.5 131.38,-488.5"/>
<text text-anchor="middle" x="116.38" y="-467.38" font-family="sans" font-size="10.00">unzip</text>
</g>
<!-- 2&#45;&gt;1 -->
<g id="edge4" class="edge">
<title>2&#45;&gt;1</title>
<path fill="none" stroke="grey" stroke-width="2" d="M107.69,-451.75C96.22,-428.31 75.77,-386.52 61.21,-356.78"/>
<polygon fill="grey" stroke="grey" stroke-width="2" points="64.44,-355.42 56.9,-347.97 58.15,-358.49 64.44,-355.42"/>
</g>
<!-- 3 -->
<g id="node4" class="node">
<title>3</title>
<path fill="none" stroke="#5682d8" stroke-width="2" d="M148.75,-262.25C148.75,-262.25 84,-262.25 84,-262.25 78,-262.25 72,-256.25 72,-250.25 72,-250.25 72,-228 72,-228 72,-222 78,-216 84,-216 84,-216 148.75,-216 148.75,-216 154.75,-216 160.75,-222 160.75,-228 160.75,-228 160.75,-250.25 160.75,-250.25 160.75,-256.25 154.75,-262.25 148.75,-262.25"/>
<text text-anchor="middle" x="116.38" y="-248.75" font-family="sans" font-size="10.00">quality_control</text>
<text text-anchor="middle" x="116.38" y="-236" font-family="sans" font-size="10.00">name: A_1_20</text>
<text text-anchor="middle" x="116.38" y="-223.25" font-family="sans" font-size="10.00">unit: 2</text>
</g>
<!-- 2&#45;&gt;3 -->
<g id="edge5" class="edge">
<title>2&#45;&gt;3</title>
<path fill="none" stroke="grey" stroke-width="2" d="M116.38,-451.5C116.38,-413.76 116.38,-325.71 116.38,-275.98"/>
<polygon fill="grey" stroke="grey" stroke-width="2" points="119.88,-276.07 116.38,-266.07 112.88,-276.07 119.88,-276.07"/>
</g>
<!-- 8 -->
<g id="node9" class="node">
<title>8</title>
<path fill="none" stroke="#afd856" stroke-width="2" d="M235,-416.5C235,-416.5 165.75,-416.5 165.75,-416.5 159.75,-416.5 153.75,-410.5 153.75,-404.5 153.75,-404.5 153.75,-392.5 153.75,-392.5 153.75,-386.5 159.75,-380.5 165.75,-380.5 165.75,-380.5 235,-380.5 235,-380.5 241,-380.5 247,-386.5 247,-392.5 247,-392.5 247,-404.5 247,-404.5 247,-410.5 241,-416.5 235,-416.5"/>
<text text-anchor="middle" x="200.38" y="-401.75" font-family="sans" font-size="10.00">bwa_map</text>
<text text-anchor="middle" x="200.38" y="-389" font-family="sans" font-size="10.00">sample: A_1_20</text>
</g>
<!-- 2&#45;&gt;8 -->
<g id="edge10" class="edge">
<title>2&#45;&gt;8</title>
<path fill="none" stroke="grey" stroke-width="2" d="M137.57,-451.84C147.15,-443.86 158.65,-434.27 169.19,-425.49"/>
<polygon fill="grey" stroke="grey" stroke-width="2" points="171.13,-428.43 176.57,-419.34 166.64,-423.05 171.13,-428.43"/>
</g>
<!-- 3&#45;&gt;0 -->
<g id="edge2" class="edge">
<title>3&#45;&gt;0</title>
<path fill="none" stroke="grey" stroke-width="2" d="M116.38,-215.09C116.38,-175.34 116.38,-93.89 116.38,-49.49"/>
<polygon fill="grey" stroke="grey" stroke-width="2" points="119.88,-49.76 116.38,-39.76 112.88,-49.76 119.88,-49.76"/>
</g>
<!-- 4 -->
<g id="node5" class="node">
<title>4</title>
<path fill="none" stroke="#56d8a9" stroke-width="2" d="M219.38,-108C219.38,-108 173.38,-108 173.38,-108 167.38,-108 161.38,-102 161.38,-96 161.38,-96 161.38,-84 161.38,-84 161.38,-78 167.38,-72 173.38,-72 173.38,-72 219.38,-72 219.38,-72 225.38,-72 231.38,-78 231.38,-84 231.38,-84 231.38,-96 231.38,-96 231.38,-102 225.38,-108 219.38,-108"/>
<text text-anchor="middle" x="196.38" y="-86.88" font-family="sans" font-size="10.00">free_bayes</text>
</g>
<!-- 4&#45;&gt;0 -->
<g id="edge3" class="edge">
<title>4&#45;&gt;0</title>
<path fill="none" stroke="grey" stroke-width="2" d="M176.19,-71.34C167.16,-63.44 156.33,-53.96 146.39,-45.26"/>
<polygon fill="grey" stroke="grey" stroke-width="2" points="148.94,-42.85 139.11,-38.9 144.33,-48.11 148.94,-42.85"/>
</g>
<!-- 5 -->
<g id="node6" class="node">
<title>5</title>
<path fill="none" stroke="#80d856" stroke-width="2" d="M256.25,-180C256.25,-180 170.5,-180 170.5,-180 164.5,-180 158.5,-174 158.5,-168 158.5,-168 158.5,-156 158.5,-156 158.5,-150 164.5,-144 170.5,-144 170.5,-144 256.25,-144 256.25,-144 262.25,-144 268.25,-150 268.25,-156 268.25,-156 268.25,-168 268.25,-168 268.25,-174 262.25,-180 256.25,-180"/>
<text text-anchor="middle" x="213.38" y="-158.88" font-family="sans" font-size="10.00">add_or_replace_RG</text>
</g>
<!-- 5&#45;&gt;4 -->
<g id="edge6" class="edge">
<title>5&#45;&gt;4</title>
<path fill="none" stroke="grey" stroke-width="2" d="M209.09,-143.34C207.47,-136.67 205.58,-128.89 203.76,-121.39"/>
<polygon fill="grey" stroke="grey" stroke-width="2" points="207.2,-120.73 201.44,-111.84 200.4,-122.39 207.2,-120.73"/>
</g>
<!-- 6 -->
<g id="node7" class="node">
<title>6</title>
<path fill="none" stroke="#56d882" stroke-width="2" d="M263.88,-257.12C263.88,-257.12 190.88,-257.12 190.88,-257.12 184.88,-257.12 178.88,-251.12 178.88,-245.12 178.88,-245.12 178.88,-233.12 178.88,-233.12 178.88,-227.12 184.88,-221.12 190.88,-221.12 190.88,-221.12 263.88,-221.12 263.88,-221.12 269.88,-221.12 275.88,-227.12 275.88,-233.12 275.88,-233.12 275.88,-245.12 275.88,-245.12 275.88,-251.12 269.88,-257.12 263.88,-257.12"/>
<text text-anchor="middle" x="227.38" y="-236" font-family="sans" font-size="10.00">mark_duplicates</text>
</g>
<!-- 6&#45;&gt;5 -->
<g id="edge7" class="edge">
<title>6&#45;&gt;5</title>
<path fill="none" stroke="grey" stroke-width="2" d="M224.06,-220.32C222.57,-212.33 220.77,-202.68 219.08,-193.59"/>
<polygon fill="grey" stroke="grey" stroke-width="2" points="222.54,-193.1 217.27,-183.91 215.66,-194.38 222.54,-193.1"/>
</g>
<!-- 7 -->
<g id="node8" class="node">
<title>7</title>
<path fill="none" stroke="#d85656" stroke-width="2" d="M237.25,-339.38C237.25,-339.38 199.5,-339.38 199.5,-339.38 193.5,-339.38 187.5,-333.38 187.5,-327.38 187.5,-327.38 187.5,-315.38 187.5,-315.38 187.5,-309.38 193.5,-303.38 199.5,-303.38 199.5,-303.38 237.25,-303.38 237.25,-303.38 243.25,-303.38 249.25,-309.38 249.25,-315.38 249.25,-315.38 249.25,-327.38 249.25,-327.38 249.25,-333.38 243.25,-339.38 237.25,-339.38"/>
<text text-anchor="middle" x="218.38" y="-318.25" font-family="sans" font-size="10.00">sort_bam</text>
</g>
<!-- 7&#45;&gt;6 -->
<g id="edge8" class="edge">
<title>7&#45;&gt;6</title>
<path fill="none" stroke="grey" stroke-width="2" d="M220.37,-302.56C221.42,-293.21 222.74,-281.49 223.94,-270.74"/>
<polygon fill="grey" stroke="grey" stroke-width="2" points="227.41,-271.22 225.05,-260.89 220.45,-270.44 227.41,-271.22"/>
</g>
<!-- 8&#45;&gt;7 -->
<g id="edge9" class="edge">
<title>8&#45;&gt;7</title>
<path fill="none" stroke="grey" stroke-width="2" d="M204.64,-379.7C206.55,-371.71 208.87,-362.05 211.05,-352.96"/>
<polygon fill="grey" stroke="grey" stroke-width="2" points="214.45,-353.8 213.37,-343.25 207.64,-352.16 214.45,-353.8"/>
</g>
</g>
</svg>
