<?xml version="1.0" encoding="UTF-8" standalone="no"?>
<!DOCTYPE svg PUBLIC "-//W3C//DTD SVG 1.1//EN"
 "http://www.w3.org/Graphics/SVG/1.1/DTD/svg11.dtd">
<!-- Generated by graphviz version 9.0.0 (20231125.0833)
 -->
<!-- Title: snakemake_dag Pages: 1 -->
<svg width="343pt" height="785pt"
 viewBox="0.00 0.00 343.38 784.50" xmlns="http://www.w3.org/2000/svg" xmlns:xlink="http://www.w3.org/1999/xlink">
<g id="graph0" class="graph" transform="scale(1 1) rotate(0) translate(4 780.5)">
<title>snakemake_dag</title>
<polygon fill="white" stroke="none" points="-4,4 -4,-780.5 339.38,-780.5 339.38,4 -4,4"/>
<!-- 0 -->
<g id="node1" class="node">
<title>0</title>
<path fill="none" stroke="#afd856" stroke-width="2" d="M167.38,-36C167.38,-36 137.38,-36 137.38,-36 131.38,-36 125.38,-30 125.38,-24 125.38,-24 125.38,-12 125.38,-12 125.38,-6 131.38,0 137.38,0 137.38,0 167.38,0 167.38,0 173.38,0 179.38,-6 179.38,-12 179.38,-12 179.38,-24 179.38,-24 179.38,-30 173.38,-36 167.38,-36"/>
<text text-anchor="middle" x="152.38" y="-14.88" font-family="sans" font-size="10.00">all</text>
</g>
<!-- 1 -->
<g id="node2" class="node">
<title>1</title>
<path fill="none" stroke="#d89c56" stroke-width="2" stroke-dasharray="5,2" d="M76.75,-632.5C76.75,-632.5 12,-632.5 12,-632.5 6,-632.5 0,-626.5 0,-620.5 0,-620.5 0,-598.25 0,-598.25 0,-592.25 6,-586.25 12,-586.25 12,-586.25 76.75,-586.25 76.75,-586.25 82.75,-586.25 88.75,-592.25 88.75,-598.25 88.75,-598.25 88.75,-620.5 88.75,-620.5 88.75,-626.5 82.75,-632.5 76.75,-632.5"/>
<text text-anchor="middle" x="44.38" y="-619" font-family="sans" font-size="10.00">quality_control</text>
<text text-anchor="middle" x="44.38" y="-606.25" font-family="sans" font-size="10.00">name: A_1_20</text>
<text text-anchor="middle" x="44.38" y="-593.5" font-family="sans" font-size="10.00">unit: 1</text>
</g>
<!-- 1&#45;&gt;0 -->
<g id="edge1" class="edge">
<title>1&#45;&gt;0</title>
<path fill="none" stroke="grey" stroke-width="2" d="M44.38,-585.44C44.38,-554.8 44.38,-498.81 44.38,-451 44.38,-451 44.38,-451 44.38,-161 44.38,-112.72 84.42,-70.59 115.74,-45.02"/>
<polygon fill="grey" stroke="grey" stroke-width="2" points="117.87,-47.79 123.57,-38.86 113.55,-42.29 117.87,-47.79"/>
</g>
<!-- 2 -->
<g id="node3" class="node">
<title>2</title>
<path fill="none" stroke="#56d8a9" stroke-width="2" stroke-dasharray="5,2" d="M131.38,-776.5C131.38,-776.5 101.38,-776.5 101.38,-776.5 95.38,-776.5 89.38,-770.5 89.38,-764.5 89.38,-764.5 89.38,-752.5 89.38,-752.5 89.38,-746.5 95.38,-740.5 101.38,-740.5 101.38,-740.5 131.38,-740.5 131.38,-740.5 137.38,-740.5 143.38,-746.5 143.38,-752.5 143.38,-752.5 143.38,-764.5 143.38,-764.5 143.38,-770.5 137.38,-776.5 131.38,-776.5"/>
<text text-anchor="middle" x="116.38" y="-755.38" font-family="sans" font-size="10.00">unzip</text>
</g>
<!-- 2&#45;&gt;1 -->
<g id="edge6" class="edge">
<title>2&#45;&gt;1</title>
<path fill="none" stroke="grey" stroke-width="2" d="M107.69,-739.75C96.22,-716.31 75.77,-674.52 61.21,-644.78"/>
<polygon fill="grey" stroke="grey" stroke-width="2" points="64.44,-643.42 56.9,-635.97 58.15,-646.49 64.44,-643.42"/>
</g>
<!-- 3 -->
<g id="node4" class="node">
<title>3</title>
<path fill="none" stroke="#d89c56" stroke-width="2" stroke-dasharray="5,2" d="M148.75,-550.25C148.75,-550.25 84,-550.25 84,-550.25 78,-550.25 72,-544.25 72,-538.25 72,-538.25 72,-516 72,-516 72,-510 78,-504 84,-504 84,-504 148.75,-504 148.75,-504 154.75,-504 160.75,-510 160.75,-516 160.75,-516 160.75,-538.25 160.75,-538.25 160.75,-544.25 154.75,-550.25 148.75,-550.25"/>
<text text-anchor="middle" x="116.38" y="-536.75" font-family="sans" font-size="10.00">quality_control</text>
<text text-anchor="middle" x="116.38" y="-524" font-family="sans" font-size="10.00">name: A_1_20</text>
<text text-anchor="middle" x="116.38" y="-511.25" font-family="sans" font-size="10.00">unit: 2</text>
</g>
<!-- 2&#45;&gt;3 -->
<g id="edge7" class="edge">
<title>2&#45;&gt;3</title>
<path fill="none" stroke="grey" stroke-width="2" d="M116.38,-739.5C116.38,-701.76 116.38,-613.71 116.38,-563.98"/>
<polygon fill="grey" stroke="grey" stroke-width="2" points="119.88,-564.07 116.38,-554.07 112.88,-564.07 119.88,-564.07"/>
</g>
<!-- 8 -->
<g id="node9" class="node">
<title>8</title>
<path fill="none" stroke="#d85656" stroke-width="2" stroke-dasharray="5,2" d="M235,-704.5C235,-704.5 165.75,-704.5 165.75,-704.5 159.75,-704.5 153.75,-698.5 153.75,-692.5 153.75,-692.5 153.75,-680.5 153.75,-680.5 153.75,-674.5 159.75,-668.5 165.75,-668.5 165.75,-668.5 235,-668.5 235,-668.5 241,-668.5 247,-674.5 247,-680.5 247,-680.5 247,-692.5 247,-692.5 247,-698.5 241,-704.5 235,-704.5"/>
<text text-anchor="middle" x="200.38" y="-689.75" font-family="sans" font-size="10.00">bwa_map</text>
<text text-anchor="middle" x="200.38" y="-677" font-family="sans" font-size="10.00">sample: A_1_20</text>
</g>
<!-- 2&#45;&gt;8 -->
<g id="edge13" class="edge">
<title>2&#45;&gt;8</title>
<path fill="none" stroke="grey" stroke-width="2" d="M137.57,-739.84C147.15,-731.86 158.65,-722.27 169.19,-713.49"/>
<polygon fill="grey" stroke="grey" stroke-width="2" points="171.13,-716.43 176.57,-707.34 166.64,-711.05 171.13,-716.43"/>
</g>
<!-- 3&#45;&gt;0 -->
<g id="edge2" class="edge">
<title>3&#45;&gt;0</title>
<path fill="none" stroke="grey" stroke-width="2" d="M115.87,-503.19C115.28,-474.25 114.38,-422.94 114.38,-379 114.38,-379 114.38,-379 114.38,-161 114.38,-121.16 128.5,-77.11 139.53,-48.8"/>
<polygon fill="grey" stroke="grey" stroke-width="2" points="142.67,-50.36 143.18,-39.77 136.19,-47.73 142.67,-50.36"/>
</g>
<!-- 4 -->
<g id="node5" class="node">
<title>4</title>
<path fill="none" stroke="#ced856" stroke-width="2" stroke-dasharray="5,2" d="M231.88,-396C231.88,-396 158.88,-396 158.88,-396 152.88,-396 146.88,-390 146.88,-384 146.88,-384 146.88,-372 146.88,-372 146.88,-366 152.88,-360 158.88,-360 158.88,-360 231.88,-360 231.88,-360 237.88,-360 243.88,-366 243.88,-372 243.88,-372 243.88,-384 243.88,-384 243.88,-390 237.88,-396 231.88,-396"/>
<text text-anchor="middle" x="195.38" y="-374.88" font-family="sans" font-size="10.00">haplotype_caller</text>
</g>
<!-- 4&#45;&gt;0 -->
<g id="edge3" class="edge">
<title>4&#45;&gt;0</title>
<path fill="none" stroke="grey" stroke-width="2" d="M186.26,-359.14C173.63,-332.73 152.38,-281.36 152.38,-235 152.38,-235 152.38,-235 152.38,-161 152.38,-122.65 152.38,-78.48 152.38,-49.72"/>
<polygon fill="grey" stroke="grey" stroke-width="2" points="155.88,-49.96 152.38,-39.96 148.88,-49.96 155.88,-49.96"/>
</g>
<!-- 13 -->
<g id="node14" class="node">
<title>13</title>
<path fill="none" stroke="#88d856" stroke-width="2" stroke-dasharray="5,2" d="M246,-324C246,-324 206.75,-324 206.75,-324 200.75,-324 194.75,-318 194.75,-312 194.75,-312 194.75,-300 194.75,-300 194.75,-294 200.75,-288 206.75,-288 206.75,-288 246,-288 246,-288 252,-288 258,-294 258,-300 258,-300 258,-312 258,-312 258,-318 252,-324 246,-324"/>
<text text-anchor="middle" x="226.38" y="-302.88" font-family="sans" font-size="10.00">compress</text>
</g>
<!-- 4&#45;&gt;13 -->
<g id="edge20" class="edge">
<title>4&#45;&gt;13</title>
<path fill="none" stroke="grey" stroke-width="2" d="M203.2,-359.34C206.26,-352.43 209.85,-344.31 213.29,-336.56"/>
<polygon fill="grey" stroke="grey" stroke-width="2" points="216.37,-338.23 217.22,-327.67 209.97,-335.4 216.37,-338.23"/>
</g>
<!-- 5 -->
<g id="node6" class="node">
<title>5</title>
<path fill="none" stroke="#d8bc56" stroke-width="2" stroke-dasharray="5,2" d="M262,-468C262,-468 192.75,-468 192.75,-468 186.75,-468 180.75,-462 180.75,-456 180.75,-456 180.75,-444 180.75,-444 180.75,-438 186.75,-432 192.75,-432 192.75,-432 262,-432 262,-432 268,-432 274,-438 274,-444 274,-444 274,-456 274,-456 274,-462 268,-468 262,-468"/>
<text text-anchor="middle" x="227.38" y="-446.88" font-family="sans" font-size="10.00">samtools_index</text>
</g>
<!-- 5&#45;&gt;4 -->
<g id="edge8" class="edge">
<title>5&#45;&gt;4</title>
<path fill="none" stroke="grey" stroke-width="2" d="M219.3,-431.34C216.14,-424.43 212.43,-416.31 208.89,-408.56"/>
<polygon fill="grey" stroke="grey" stroke-width="2" points="212.16,-407.29 204.82,-399.65 205.79,-410.2 212.16,-407.29"/>
</g>
<!-- 6 -->
<g id="node7" class="node">
<title>6</title>
<path fill="none" stroke="#567bd8" stroke-width="2" stroke-dasharray="5,2" d="M263.88,-545.12C263.88,-545.12 190.88,-545.12 190.88,-545.12 184.88,-545.12 178.88,-539.12 178.88,-533.12 178.88,-533.12 178.88,-521.12 178.88,-521.12 178.88,-515.12 184.88,-509.12 190.88,-509.12 190.88,-509.12 263.88,-509.12 263.88,-509.12 269.88,-509.12 275.88,-515.12 275.88,-521.12 275.88,-521.12 275.88,-533.12 275.88,-533.12 275.88,-539.12 269.88,-545.12 263.88,-545.12"/>
<text text-anchor="middle" x="227.38" y="-524" font-family="sans" font-size="10.00">mark_duplicates</text>
</g>
<!-- 6&#45;&gt;4 -->
<g id="edge9" class="edge">
<title>6&#45;&gt;4</title>
<path fill="none" stroke="grey" stroke-width="2" d="M202.96,-508.3C191,-498.03 177.82,-483.98 171.38,-468 163.58,-448.68 169.92,-425.99 178.03,-408.36"/>
<polygon fill="grey" stroke="grey" stroke-width="2" points="181.13,-410 182.56,-399.5 174.89,-406.82 181.13,-410"/>
</g>
<!-- 6&#45;&gt;5 -->
<g id="edge10" class="edge">
<title>6&#45;&gt;5</title>
<path fill="none" stroke="grey" stroke-width="2" d="M227.38,-508.32C227.38,-500.43 227.38,-490.9 227.38,-481.91"/>
<polygon fill="grey" stroke="grey" stroke-width="2" points="230.88,-481.96 227.38,-471.96 223.88,-481.96 230.88,-481.96"/>
</g>
<!-- 9 -->
<g id="node10" class="node">
<title>9</title>
<path fill="none" stroke="#68d856" stroke-width="2" stroke-dasharray="5,2" d="M323.38,-396C323.38,-396 277.38,-396 277.38,-396 271.38,-396 265.38,-390 265.38,-384 265.38,-384 265.38,-372 265.38,-372 265.38,-366 271.38,-360 277.38,-360 277.38,-360 323.38,-360 323.38,-360 329.38,-360 335.38,-366 335.38,-372 335.38,-372 335.38,-384 335.38,-384 335.38,-390 329.38,-396 323.38,-396"/>
<text text-anchor="middle" x="300.38" y="-374.88" font-family="sans" font-size="10.00">free_bayes</text>
</g>
<!-- 6&#45;&gt;9 -->
<g id="edge14" class="edge">
<title>6&#45;&gt;9</title>
<path fill="none" stroke="grey" stroke-width="2" d="M250.03,-508.26C261.78,-497.78 275.32,-483.55 283.38,-468 292.72,-449.94 296.97,-427.43 298.87,-409.57"/>
<polygon fill="grey" stroke="grey" stroke-width="2" points="302.35,-409.96 299.69,-399.7 295.38,-409.38 302.35,-409.96"/>
</g>
<!-- 7 -->
<g id="node8" class="node">
<title>7</title>
<path fill="none" stroke="#d87556" stroke-width="2" stroke-dasharray="5,2" d="M237.25,-627.38C237.25,-627.38 199.5,-627.38 199.5,-627.38 193.5,-627.38 187.5,-621.38 187.5,-615.38 187.5,-615.38 187.5,-603.38 187.5,-603.38 187.5,-597.38 193.5,-591.38 199.5,-591.38 199.5,-591.38 237.25,-591.38 237.25,-591.38 243.25,-591.38 249.25,-597.38 249.25,-603.38 249.25,-603.38 249.25,-615.38 249.25,-615.38 249.25,-621.38 243.25,-627.38 237.25,-627.38"/>
<text text-anchor="middle" x="218.38" y="-606.25" font-family="sans" font-size="10.00">sort_bam</text>
</g>
<!-- 7&#45;&gt;6 -->
<g id="edge11" class="edge">
<title>7&#45;&gt;6</title>
<path fill="none" stroke="grey" stroke-width="2" d="M220.37,-590.56C221.42,-581.21 222.74,-569.49 223.94,-558.74"/>
<polygon fill="grey" stroke="grey" stroke-width="2" points="227.41,-559.22 225.05,-548.89 220.45,-558.44 227.41,-559.22"/>
</g>
<!-- 8&#45;&gt;7 -->
<g id="edge12" class="edge">
<title>8&#45;&gt;7</title>
<path fill="none" stroke="grey" stroke-width="2" d="M204.64,-667.7C206.55,-659.71 208.87,-650.05 211.05,-640.96"/>
<polygon fill="grey" stroke="grey" stroke-width="2" points="214.45,-641.8 213.37,-631.25 207.64,-640.16 214.45,-641.8"/>
</g>
<!-- 9&#45;&gt;0 -->
<g id="edge4" class="edge">
<title>9&#45;&gt;0</title>
<path fill="none" stroke="grey" stroke-width="2" d="M300.38,-359.07C300.38,-332.13 300.38,-279.62 300.38,-235 300.38,-235 300.38,-235 300.38,-161 300.38,-116.68 286.61,-103.45 255.38,-72 237.81,-54.31 213.1,-41.32 192.29,-32.63"/>
<polygon fill="grey" stroke="grey" stroke-width="2" points="193.65,-29.41 183.07,-29 191.09,-35.92 193.65,-29.41"/>
</g>
<!-- 9&#45;&gt;13 -->
<g id="edge19" class="edge">
<title>9&#45;&gt;13</title>
<path fill="none" stroke="grey" stroke-width="2" d="M281.7,-359.34C273.53,-351.6 263.75,-342.36 254.71,-333.81"/>
<polygon fill="grey" stroke="grey" stroke-width="2" points="257.17,-331.31 247.5,-326.98 252.36,-336.4 257.17,-331.31"/>
</g>
<!-- 10 -->
<g id="node11" class="node">
<title>10</title>
<path fill="none" stroke="#56d86b" stroke-width="2" d="M234.5,-108C234.5,-108 192.25,-108 192.25,-108 186.25,-108 180.25,-102 180.25,-96 180.25,-96 180.25,-84 180.25,-84 180.25,-78 186.25,-72 192.25,-72 192.25,-72 234.5,-72 234.5,-72 240.5,-72 246.5,-78 246.5,-84 246.5,-84 246.5,-96 246.5,-96 246.5,-102 240.5,-108 234.5,-108"/>
<text text-anchor="middle" x="213.38" y="-86.88" font-family="sans" font-size="10.00">divide_vcf</text>
</g>
<!-- 10&#45;&gt;0 -->
<g id="edge5" class="edge">
<title>10&#45;&gt;0</title>
<path fill="none" stroke="grey" stroke-width="2" d="M197.98,-71.34C191.46,-63.85 183.7,-54.95 176.45,-46.63"/>
<polygon fill="grey" stroke="grey" stroke-width="2" points="179.17,-44.42 169.96,-39.18 173.89,-49.02 179.17,-44.42"/>
</g>
<!-- 11 -->
<g id="node12" class="node">
<title>11</title>
<path fill="none" stroke="#56d88a" stroke-width="2" stroke-dasharray="5,2" d="M260.38,-180C260.38,-180 230.38,-180 230.38,-180 224.38,-180 218.38,-174 218.38,-168 218.38,-168 218.38,-156 218.38,-156 218.38,-150 224.38,-144 230.38,-144 230.38,-144 260.38,-144 260.38,-144 266.38,-144 272.38,-150 272.38,-156 272.38,-156 272.38,-168 272.38,-168 272.38,-174 266.38,-180 260.38,-180"/>
<text text-anchor="middle" x="245.38" y="-158.88" font-family="sans" font-size="10.00">index</text>
</g>
<!-- 11&#45;&gt;10 -->
<g id="edge15" class="edge">
<title>11&#45;&gt;10</title>
<path fill="none" stroke="grey" stroke-width="2" d="M237.3,-143.34C234.14,-136.43 230.43,-128.31 226.89,-120.56"/>
<polygon fill="grey" stroke="grey" stroke-width="2" points="230.16,-119.29 222.82,-111.65 223.79,-122.2 230.16,-119.29"/>
</g>
<!-- 12 -->
<g id="node13" class="node">
<title>12</title>
<path fill="none" stroke="#569ad8" stroke-width="2" stroke-dasharray="5,2" d="M241.38,-252C241.38,-252 211.38,-252 211.38,-252 205.38,-252 199.38,-246 199.38,-240 199.38,-240 199.38,-228 199.38,-228 199.38,-222 205.38,-216 211.38,-216 211.38,-216 241.38,-216 241.38,-216 247.38,-216 253.38,-222 253.38,-228 253.38,-228 253.38,-240 253.38,-240 253.38,-246 247.38,-252 241.38,-252"/>
<text text-anchor="middle" x="226.38" y="-230.88" font-family="sans" font-size="10.00">sort</text>
</g>
<!-- 12&#45;&gt;10 -->
<g id="edge16" class="edge">
<title>12&#45;&gt;10</title>
<path fill="none" stroke="grey" stroke-width="2" d="M219.13,-215.19C215.4,-205.06 211.26,-192.03 209.38,-180 206.36,-160.71 207.29,-138.8 209.01,-121.54"/>
<polygon fill="grey" stroke="grey" stroke-width="2" points="212.46,-122.19 210.14,-111.85 205.5,-121.38 212.46,-122.19"/>
</g>
<!-- 12&#45;&gt;11 -->
<g id="edge17" class="edge">
<title>12&#45;&gt;11</title>
<path fill="none" stroke="grey" stroke-width="2" d="M231.17,-215.34C232.98,-208.67 235.09,-200.89 237.13,-193.39"/>
<polygon fill="grey" stroke="grey" stroke-width="2" points="240.48,-194.39 239.72,-183.82 233.73,-192.56 240.48,-194.39"/>
</g>
<!-- 13&#45;&gt;12 -->
<g id="edge18" class="edge">
<title>13&#45;&gt;12</title>
<path fill="none" stroke="grey" stroke-width="2" d="M226.38,-287.34C226.38,-280.75 226.38,-273.08 226.38,-265.67"/>
<polygon fill="grey" stroke="grey" stroke-width="2" points="229.88,-265.93 226.38,-255.93 222.88,-265.93 229.88,-265.93"/>
</g>
</g>
</svg>
