<?xml version="1.0" encoding="UTF-8" standalone="no"?>
<!DOCTYPE svg PUBLIC "-//W3C//DTD SVG 1.1//EN"
 "http://www.w3.org/Graphics/SVG/1.1/DTD/svg11.dtd">
<!-- Generated by graphviz version 9.0.0 (20231125.0833)
 -->
<!-- Title: snakemake_dag Pages: 1 -->
<svg width="602pt" height="785pt"
 viewBox="0.00 0.00 602.38 784.50" xmlns="http://www.w3.org/2000/svg" xmlns:xlink="http://www.w3.org/1999/xlink">
<g id="graph0" class="graph" transform="scale(1 1) rotate(0) translate(4 780.5)">
<title>snakemake_dag</title>
<polygon fill="white" stroke="none" points="-4,4 -4,-780.5 598.38,-780.5 598.38,4 -4,4"/>
<!-- 0 -->
<g id="node1" class="node">
<title>0</title>
<path fill="none" stroke="#56d882" stroke-width="2" d="M250.38,-36C250.38,-36 220.38,-36 220.38,-36 214.38,-36 208.38,-30 208.38,-24 208.38,-24 208.38,-12 208.38,-12 208.38,-6 214.38,0 220.38,0 220.38,0 250.38,0 250.38,0 256.38,0 262.38,-6 262.38,-12 262.38,-12 262.38,-24 262.38,-24 262.38,-30 256.38,-36 250.38,-36"/>
<text text-anchor="middle" x="235.38" y="-14.88" font-family="sans" font-size="10.00">all</text>
</g>
<!-- 1 -->
<g id="node2" class="node">
<title>1</title>
<path fill="none" stroke="#61d856" stroke-width="2" d="M76.75,-632.5C76.75,-632.5 12,-632.5 12,-632.5 6,-632.5 0,-626.5 0,-620.5 0,-620.5 0,-598.25 0,-598.25 0,-592.25 6,-586.25 12,-586.25 12,-586.25 76.75,-586.25 76.75,-586.25 82.75,-586.25 88.75,-592.25 88.75,-598.25 88.75,-598.25 88.75,-620.5 88.75,-620.5 88.75,-626.5 82.75,-632.5 76.75,-632.5"/>
<text text-anchor="middle" x="44.38" y="-619" font-family="sans" font-size="10.00">quality_control</text>
<text text-anchor="middle" x="44.38" y="-606.25" font-family="sans" font-size="10.00">name: A_1_20</text>
<text text-anchor="middle" x="44.38" y="-593.5" font-family="sans" font-size="10.00">unit: 1</text>
</g>
<!-- 1&#45;&gt;0 -->
<g id="edge1" class="edge">
<title>1&#45;&gt;0</title>
<path fill="none" stroke="grey" stroke-width="2" d="M44.38,-585.44C44.38,-554.8 44.38,-498.81 44.38,-451 44.38,-451 44.38,-451 44.38,-161 44.38,-115.41 60.69,-101.58 95.38,-72 123.88,-47.69 164.68,-33.95 194.89,-26.59"/>
<polygon fill="grey" stroke="grey" stroke-width="2" points="195.59,-30.01 204.57,-24.39 194.05,-23.19 195.59,-30.01"/>
</g>
<!-- 2 -->
<g id="node3" class="node">
<title>2</title>
<path fill="none" stroke="#d85656" stroke-width="2" stroke-dasharray="5,2" d="M131.38,-776.5C131.38,-776.5 101.38,-776.5 101.38,-776.5 95.38,-776.5 89.38,-770.5 89.38,-764.5 89.38,-764.5 89.38,-752.5 89.38,-752.5 89.38,-746.5 95.38,-740.5 101.38,-740.5 101.38,-740.5 131.38,-740.5 131.38,-740.5 137.38,-740.5 143.38,-746.5 143.38,-752.5 143.38,-752.5 143.38,-764.5 143.38,-764.5 143.38,-770.5 137.38,-776.5 131.38,-776.5"/>
<text text-anchor="middle" x="116.38" y="-755.38" font-family="sans" font-size="10.00">unzip</text>
</g>
<!-- 2&#45;&gt;1 -->
<g id="edge10" class="edge">
<title>2&#45;&gt;1</title>
<path fill="none" stroke="grey" stroke-width="2" d="M107.69,-739.75C96.22,-716.31 75.77,-674.52 61.21,-644.78"/>
<polygon fill="grey" stroke="grey" stroke-width="2" points="64.44,-643.42 56.9,-635.97 58.15,-646.49 64.44,-643.42"/>
</g>
<!-- 3 -->
<g id="node4" class="node">
<title>3</title>
<path fill="none" stroke="#61d856" stroke-width="2" d="M148.75,-550.25C148.75,-550.25 84,-550.25 84,-550.25 78,-550.25 72,-544.25 72,-538.25 72,-538.25 72,-516 72,-516 72,-510 78,-504 84,-504 84,-504 148.75,-504 148.75,-504 154.75,-504 160.75,-510 160.75,-516 160.75,-516 160.75,-538.25 160.75,-538.25 160.75,-544.25 154.75,-550.25 148.75,-550.25"/>
<text text-anchor="middle" x="116.38" y="-536.75" font-family="sans" font-size="10.00">quality_control</text>
<text text-anchor="middle" x="116.38" y="-524" font-family="sans" font-size="10.00">name: A_1_20</text>
<text text-anchor="middle" x="116.38" y="-511.25" font-family="sans" font-size="10.00">unit: 2</text>
</g>
<!-- 2&#45;&gt;3 -->
<g id="edge11" class="edge">
<title>2&#45;&gt;3</title>
<path fill="none" stroke="grey" stroke-width="2" d="M116.38,-739.5C116.38,-701.76 116.38,-613.71 116.38,-563.98"/>
<polygon fill="grey" stroke="grey" stroke-width="2" points="119.88,-564.07 116.38,-554.07 112.88,-564.07 119.88,-564.07"/>
</g>
<!-- 10 -->
<g id="node11" class="node">
<title>10</title>
<path fill="none" stroke="#ced856" stroke-width="2" stroke-dasharray="5,2" d="M322,-704.5C322,-704.5 252.75,-704.5 252.75,-704.5 246.75,-704.5 240.75,-698.5 240.75,-692.5 240.75,-692.5 240.75,-680.5 240.75,-680.5 240.75,-674.5 246.75,-668.5 252.75,-668.5 252.75,-668.5 322,-668.5 322,-668.5 328,-668.5 334,-674.5 334,-680.5 334,-680.5 334,-692.5 334,-692.5 334,-698.5 328,-704.5 322,-704.5"/>
<text text-anchor="middle" x="287.38" y="-689.75" font-family="sans" font-size="10.00">bwa_map</text>
<text text-anchor="middle" x="287.38" y="-677" font-family="sans" font-size="10.00">sample: A_1_20</text>
</g>
<!-- 2&#45;&gt;10 -->
<g id="edge19" class="edge">
<title>2&#45;&gt;10</title>
<path fill="none" stroke="grey" stroke-width="2" d="M144.23,-746.1C167.85,-736.43 202.46,-722.26 231.74,-710.28"/>
<polygon fill="grey" stroke="grey" stroke-width="2" points="232.76,-713.64 240.69,-706.61 230.11,-707.16 232.76,-713.64"/>
</g>
<!-- 3&#45;&gt;0 -->
<g id="edge2" class="edge">
<title>3&#45;&gt;0</title>
<path fill="none" stroke="grey" stroke-width="2" d="M107.62,-503.06C97.55,-474.41 82.38,-423.83 82.38,-379 82.38,-379 82.38,-379 82.38,-161 82.38,-115.41 100.48,-103.57 133.38,-72 151.11,-54.98 175.38,-42.08 195.8,-33.26"/>
<polygon fill="grey" stroke="grey" stroke-width="2" points="196.88,-36.6 204.81,-29.57 194.23,-30.12 196.88,-36.6"/>
</g>
<!-- 4 -->
<g id="node5" class="node">
<title>4</title>
<path fill="none" stroke="#d88d56" stroke-width="2" stroke-dasharray="5,2" d="M485.12,-776.5C485.12,-776.5 395.62,-776.5 395.62,-776.5 389.62,-776.5 383.62,-770.5 383.62,-764.5 383.62,-764.5 383.62,-752.5 383.62,-752.5 383.62,-746.5 389.62,-740.5 395.62,-740.5 395.62,-740.5 485.12,-740.5 485.12,-740.5 491.12,-740.5 497.12,-746.5 497.12,-752.5 497.12,-752.5 497.12,-764.5 497.12,-764.5 497.12,-770.5 491.12,-776.5 485.12,-776.5"/>
<text text-anchor="middle" x="440.38" y="-755.38" font-family="sans" font-size="10.00">index_bwa_genome</text>
</g>
<!-- 4&#45;&gt;0 -->
<g id="edge3" class="edge">
<title>4&#45;&gt;0</title>
<path fill="none" stroke="grey" stroke-width="2" d="M482.05,-739.52C527.66,-716.71 594.38,-672.68 594.38,-610.38 594.38,-610.38 594.38,-610.38 594.38,-161 594.38,-114.5 577.88,-98.06 539.38,-72 496.98,-43.31 348.47,-27.92 275.9,-21.96"/>
<polygon fill="grey" stroke="grey" stroke-width="2" points="276.54,-18.5 266.3,-21.2 275.99,-25.48 276.54,-18.5"/>
</g>
<!-- 4&#45;&gt;10 -->
<g id="edge18" class="edge">
<title>4&#45;&gt;10</title>
<path fill="none" stroke="grey" stroke-width="2" d="M401.37,-739.65C382.2,-730.88 358.86,-720.21 338.3,-710.8"/>
<polygon fill="grey" stroke="grey" stroke-width="2" points="339.88,-707.67 329.33,-706.69 336.96,-714.04 339.88,-707.67"/>
</g>
<!-- 5 -->
<g id="node6" class="node">
<title>5</title>
<path fill="none" stroke="#d87556" stroke-width="2" stroke-dasharray="5,2" d="M516.5,-396C516.5,-396 402.25,-396 402.25,-396 396.25,-396 390.25,-390 390.25,-384 390.25,-384 390.25,-372 390.25,-372 390.25,-366 396.25,-360 402.25,-360 402.25,-360 516.5,-360 516.5,-360 522.5,-360 528.5,-366 528.5,-372 528.5,-372 528.5,-384 528.5,-384 528.5,-390 522.5,-396 516.5,-396"/>
<text text-anchor="middle" x="459.38" y="-374.88" font-family="sans" font-size="10.00">index_samtools_genome</text>
</g>
<!-- 5&#45;&gt;0 -->
<g id="edge4" class="edge">
<title>5&#45;&gt;0</title>
<path fill="none" stroke="grey" stroke-width="2" d="M482.36,-359.04C511.05,-334.42 556.38,-287.25 556.38,-235 556.38,-235 556.38,-235 556.38,-161 556.38,-39.82 362.68,-21.22 276.21,-18.95"/>
<polygon fill="grey" stroke="grey" stroke-width="2" points="276.39,-15.46 266.33,-18.77 276.26,-22.45 276.39,-15.46"/>
</g>
<!-- 6 -->
<g id="node7" class="node">
<title>6</title>
<path fill="none" stroke="#56d8b9" stroke-width="2" stroke-dasharray="5,2" d="M333.88,-324C333.88,-324 260.88,-324 260.88,-324 254.88,-324 248.88,-318 248.88,-312 248.88,-312 248.88,-300 248.88,-300 248.88,-294 254.88,-288 260.88,-288 260.88,-288 333.88,-288 333.88,-288 339.88,-288 345.88,-294 345.88,-300 345.88,-300 345.88,-312 345.88,-312 345.88,-318 339.88,-324 333.88,-324"/>
<text text-anchor="middle" x="297.38" y="-302.88" font-family="sans" font-size="10.00">haplotype_caller</text>
</g>
<!-- 5&#45;&gt;6 -->
<g id="edge14" class="edge">
<title>5&#45;&gt;6</title>
<path fill="none" stroke="grey" stroke-width="2" d="M418.08,-359.15C397.59,-350.3 372.6,-339.51 350.69,-330.04"/>
<polygon fill="grey" stroke="grey" stroke-width="2" points="352.23,-326.89 341.66,-326.13 349.45,-333.31 352.23,-326.89"/>
</g>
<!-- 12 -->
<g id="node13" class="node">
<title>12</title>
<path fill="none" stroke="#80d856" stroke-width="2" d="M420.62,-252C420.62,-252 370.12,-252 370.12,-252 364.12,-252 358.12,-246 358.12,-240 358.12,-240 358.12,-228 358.12,-228 358.12,-222 364.12,-216 370.12,-216 370.12,-216 420.62,-216 420.62,-216 426.62,-216 432.62,-222 432.62,-228 432.62,-228 432.62,-240 432.62,-240 432.62,-246 426.62,-252 420.62,-252"/>
<text text-anchor="middle" x="395.38" y="-230.88" font-family="sans" font-size="10.00">deepvariant</text>
</g>
<!-- 5&#45;&gt;12 -->
<g id="edge21" class="edge">
<title>5&#45;&gt;12</title>
<path fill="none" stroke="grey" stroke-width="2" d="M451.27,-359.02C440.55,-335.22 421.5,-292.97 408.66,-264.48"/>
<polygon fill="grey" stroke="grey" stroke-width="2" points="411.96,-263.28 404.66,-255.6 405.58,-266.15 411.96,-263.28"/>
</g>
<!-- 6&#45;&gt;0 -->
<g id="edge5" class="edge">
<title>6&#45;&gt;0</title>
<path fill="none" stroke="grey" stroke-width="2" d="M278.81,-287.11C270.13,-277.56 260.57,-265.09 255.38,-252 228.23,-183.6 229.49,-95.26 232.55,-49.5"/>
<polygon fill="grey" stroke="grey" stroke-width="2" points="236.02,-49.99 233.3,-39.75 229.04,-49.46 236.02,-49.99"/>
</g>
<!-- 17 -->
<g id="node18" class="node">
<title>17</title>
<path fill="none" stroke="#5673d8" stroke-width="2" stroke-dasharray="5,2" d="M316,-252C316,-252 276.75,-252 276.75,-252 270.75,-252 264.75,-246 264.75,-240 264.75,-240 264.75,-228 264.75,-228 264.75,-222 270.75,-216 276.75,-216 276.75,-216 316,-216 316,-216 322,-216 328,-222 328,-228 328,-228 328,-240 328,-240 328,-246 322,-252 316,-252"/>
<text text-anchor="middle" x="296.38" y="-230.88" font-family="sans" font-size="10.00">compress</text>
</g>
<!-- 6&#45;&gt;17 -->
<g id="edge32" class="edge">
<title>6&#45;&gt;17</title>
<path fill="none" stroke="grey" stroke-width="2" d="M297.12,-287.34C297.03,-280.75 296.92,-273.08 296.81,-265.67"/>
<polygon fill="grey" stroke="grey" stroke-width="2" points="300.32,-265.88 296.67,-255.93 293.32,-265.98 300.32,-265.88"/>
</g>
<!-- 7 -->
<g id="node8" class="node">
<title>7</title>
<path fill="none" stroke="#56a9d8" stroke-width="2" stroke-dasharray="5,2" d="M360,-396C360,-396 290.75,-396 290.75,-396 284.75,-396 278.75,-390 278.75,-384 278.75,-384 278.75,-372 278.75,-372 278.75,-366 284.75,-360 290.75,-360 290.75,-360 360,-360 360,-360 366,-360 372,-366 372,-372 372,-372 372,-384 372,-384 372,-390 366,-396 360,-396"/>
<text text-anchor="middle" x="325.38" y="-374.88" font-family="sans" font-size="10.00">samtools_index</text>
</g>
<!-- 7&#45;&gt;6 -->
<g id="edge12" class="edge">
<title>7&#45;&gt;6</title>
<path fill="none" stroke="grey" stroke-width="2" d="M318.31,-359.34C315.58,-352.51 312.38,-344.5 309.31,-336.83"/>
<polygon fill="grey" stroke="grey" stroke-width="2" points="312.62,-335.7 305.66,-327.71 306.12,-338.3 312.62,-335.7"/>
</g>
<!-- 7&#45;&gt;12 -->
<g id="edge23" class="edge">
<title>7&#45;&gt;12</title>
<path fill="none" stroke="grey" stroke-width="2" d="M335.62,-359.01C341.32,-348.83 348.43,-335.81 354.38,-324 364.22,-304.43 374.53,-282.04 382.35,-264.61"/>
<polygon fill="grey" stroke="grey" stroke-width="2" points="385.46,-266.23 386.33,-255.67 379.07,-263.38 385.46,-266.23"/>
</g>
<!-- 8 -->
<g id="node9" class="node">
<title>8</title>
<path fill="none" stroke="#97d856" stroke-width="2" stroke-dasharray="5,2" d="M323.88,-545.12C323.88,-545.12 250.88,-545.12 250.88,-545.12 244.88,-545.12 238.88,-539.12 238.88,-533.12 238.88,-533.12 238.88,-521.12 238.88,-521.12 238.88,-515.12 244.88,-509.12 250.88,-509.12 250.88,-509.12 323.88,-509.12 323.88,-509.12 329.88,-509.12 335.88,-515.12 335.88,-521.12 335.88,-521.12 335.88,-533.12 335.88,-533.12 335.88,-539.12 329.88,-545.12 323.88,-545.12"/>
<text text-anchor="middle" x="287.38" y="-524" font-family="sans" font-size="10.00">mark_duplicates</text>
</g>
<!-- 8&#45;&gt;6 -->
<g id="edge13" class="edge">
<title>8&#45;&gt;6</title>
<path fill="none" stroke="grey" stroke-width="2" d="M281.46,-508.39C272.11,-477.71 256.25,-412.94 269.38,-360 271.41,-351.78 274.98,-343.43 278.91,-335.87"/>
<polygon fill="grey" stroke="grey" stroke-width="2" points="281.83,-337.81 283.71,-327.39 275.73,-334.37 281.83,-337.81"/>
</g>
<!-- 8&#45;&gt;7 -->
<g id="edge15" class="edge">
<title>8&#45;&gt;7</title>
<path fill="none" stroke="grey" stroke-width="2" d="M291.96,-508.38C298.29,-483.86 309.81,-439.26 317.53,-409.38"/>
<polygon fill="grey" stroke="grey" stroke-width="2" points="320.91,-410.3 320.02,-399.74 314.13,-408.55 320.91,-410.3"/>
</g>
<!-- 11 -->
<g id="node12" class="node">
<title>11</title>
<path fill="none" stroke="#56d8d0" stroke-width="2" stroke-dasharray="5,2" d="M208.38,-468C208.38,-468 162.38,-468 162.38,-468 156.38,-468 150.38,-462 150.38,-456 150.38,-456 150.38,-444 150.38,-444 150.38,-438 156.38,-432 162.38,-432 162.38,-432 208.38,-432 208.38,-432 214.38,-432 220.38,-438 220.38,-444 220.38,-444 220.38,-456 220.38,-456 220.38,-462 214.38,-468 208.38,-468"/>
<text text-anchor="middle" x="185.38" y="-446.88" font-family="sans" font-size="10.00">free_bayes</text>
</g>
<!-- 8&#45;&gt;11 -->
<g id="edge20" class="edge">
<title>8&#45;&gt;11</title>
<path fill="none" stroke="grey" stroke-width="2" d="M262.94,-508.13C250.07,-498.65 234.08,-486.87 219.96,-476.47"/>
<polygon fill="grey" stroke="grey" stroke-width="2" points="222.17,-473.75 212.04,-470.64 218.02,-479.39 222.17,-473.75"/>
</g>
<!-- 8&#45;&gt;12 -->
<g id="edge22" class="edge">
<title>8&#45;&gt;12</title>
<path fill="none" stroke="grey" stroke-width="2" d="M336.62,-516.46C396.15,-501.86 493.78,-467.84 537.38,-396 570.25,-341.83 496.82,-288.59 443.79,-258.95"/>
<polygon fill="grey" stroke="grey" stroke-width="2" points="445.61,-255.96 435.16,-254.26 442.27,-262.11 445.61,-255.96"/>
</g>
<!-- 9 -->
<g id="node10" class="node">
<title>9</title>
<path fill="none" stroke="#56d863" stroke-width="2" stroke-dasharray="5,2" d="M306.25,-627.38C306.25,-627.38 268.5,-627.38 268.5,-627.38 262.5,-627.38 256.5,-621.38 256.5,-615.38 256.5,-615.38 256.5,-603.38 256.5,-603.38 256.5,-597.38 262.5,-591.38 268.5,-591.38 268.5,-591.38 306.25,-591.38 306.25,-591.38 312.25,-591.38 318.25,-597.38 318.25,-603.38 318.25,-603.38 318.25,-615.38 318.25,-615.38 318.25,-621.38 312.25,-627.38 306.25,-627.38"/>
<text text-anchor="middle" x="287.38" y="-606.25" font-family="sans" font-size="10.00">sort_bam</text>
</g>
<!-- 9&#45;&gt;8 -->
<g id="edge16" class="edge">
<title>9&#45;&gt;8</title>
<path fill="none" stroke="grey" stroke-width="2" d="M287.38,-590.56C287.38,-581.21 287.38,-569.49 287.38,-558.74"/>
<polygon fill="grey" stroke="grey" stroke-width="2" points="290.88,-558.91 287.38,-548.91 283.88,-558.91 290.88,-558.91"/>
</g>
<!-- 10&#45;&gt;9 -->
<g id="edge17" class="edge">
<title>10&#45;&gt;9</title>
<path fill="none" stroke="grey" stroke-width="2" d="M287.38,-667.7C287.38,-659.8 287.38,-650.28 287.38,-641.28"/>
<polygon fill="grey" stroke="grey" stroke-width="2" points="290.88,-641.34 287.38,-631.34 283.88,-641.34 290.88,-641.34"/>
</g>
<!-- 11&#45;&gt;0 -->
<g id="edge6" class="edge">
<title>11&#45;&gt;0</title>
<path fill="none" stroke="grey" stroke-width="2" d="M165.75,-431.1C156.41,-421.55 145.9,-409.08 139.38,-396 121.33,-359.8 120.38,-347.45 120.38,-307 120.38,-307 120.38,-307 120.38,-161 120.38,-111.19 163.63,-69.07 197.09,-43.93"/>
<polygon fill="grey" stroke="grey" stroke-width="2" points="199.03,-46.85 205.08,-38.16 194.93,-41.18 199.03,-46.85"/>
</g>
<!-- 14 -->
<g id="node15" class="node">
<title>14</title>
<path fill="none" stroke="#d8ac56" stroke-width="2" stroke-dasharray="5,2" d="M209.88,-396C209.88,-396 160.88,-396 160.88,-396 154.88,-396 148.88,-390 148.88,-384 148.88,-384 148.88,-372 148.88,-372 148.88,-366 154.88,-360 160.88,-360 160.88,-360 209.88,-360 209.88,-360 215.88,-360 221.88,-366 221.88,-372 221.88,-372 221.88,-384 221.88,-384 221.88,-390 215.88,-396 209.88,-396"/>
<text text-anchor="middle" x="185.38" y="-374.88" font-family="sans" font-size="10.00">filter_bayes</text>
</g>
<!-- 11&#45;&gt;14 -->
<g id="edge25" class="edge">
<title>11&#45;&gt;14</title>
<path fill="none" stroke="grey" stroke-width="2" d="M185.38,-431.34C185.38,-424.75 185.38,-417.08 185.38,-409.67"/>
<polygon fill="grey" stroke="grey" stroke-width="2" points="188.88,-409.93 185.38,-399.93 181.88,-409.93 188.88,-409.93"/>
</g>
<!-- 12&#45;&gt;0 -->
<g id="edge7" class="edge">
<title>12&#45;&gt;0</title>
<path fill="none" stroke="grey" stroke-width="2" d="M396.35,-215.15C397.12,-182.04 393.74,-110.95 354.38,-72 332.64,-50.5 300.69,-36.93 275.36,-28.91"/>
<polygon fill="grey" stroke="grey" stroke-width="2" points="276.66,-25.64 266.07,-26.16 274.67,-32.35 276.66,-25.64"/>
</g>
<!-- 15 -->
<g id="node16" class="node">
<title>15</title>
<path fill="none" stroke="#56c1d8" stroke-width="2" d="M333.5,-108C333.5,-108 291.25,-108 291.25,-108 285.25,-108 279.25,-102 279.25,-96 279.25,-96 279.25,-84 279.25,-84 279.25,-78 285.25,-72 291.25,-72 291.25,-72 333.5,-72 333.5,-72 339.5,-72 345.5,-78 345.5,-84 345.5,-84 345.5,-96 345.5,-96 345.5,-102 339.5,-108 333.5,-108"/>
<text text-anchor="middle" x="312.38" y="-86.88" font-family="sans" font-size="10.00">divide_vcf</text>
</g>
<!-- 12&#45;&gt;15 -->
<g id="edge28" class="edge">
<title>12&#45;&gt;15</title>
<path fill="none" stroke="grey" stroke-width="2" d="M391.64,-215.27C387.16,-196.54 378.44,-166.66 364.38,-144 358.58,-134.66 350.87,-125.65 343.16,-117.8"/>
<polygon fill="grey" stroke="grey" stroke-width="2" points="345.7,-115.39 336.08,-110.96 340.84,-120.42 345.7,-115.39"/>
</g>
<!-- 16 -->
<g id="node17" class="node">
<title>16</title>
<path fill="none" stroke="#d8c356" stroke-width="2" d="M343.38,-180C343.38,-180 313.38,-180 313.38,-180 307.38,-180 301.38,-174 301.38,-168 301.38,-168 301.38,-156 301.38,-156 301.38,-150 307.38,-144 313.38,-144 313.38,-144 343.38,-144 343.38,-144 349.38,-144 355.38,-150 355.38,-156 355.38,-156 355.38,-168 355.38,-168 355.38,-174 349.38,-180 343.38,-180"/>
<text text-anchor="middle" x="328.38" y="-158.88" font-family="sans" font-size="10.00">index</text>
</g>
<!-- 12&#45;&gt;16 -->
<g id="edge30" class="edge">
<title>12&#45;&gt;16</title>
<path fill="none" stroke="grey" stroke-width="2" d="M378.47,-215.34C371.14,-207.69 362.41,-198.56 354.29,-190.08"/>
<polygon fill="grey" stroke="grey" stroke-width="2" points="357.05,-187.89 347.6,-183.09 351.99,-192.73 357.05,-187.89"/>
</g>
<!-- 13 -->
<g id="node14" class="node">
<title>13</title>
<path fill="none" stroke="#568ad8" stroke-width="2" stroke-dasharray="5,2" d="M219,-324C219,-324 173.75,-324 173.75,-324 167.75,-324 161.75,-318 161.75,-312 161.75,-312 161.75,-300 161.75,-300 161.75,-294 167.75,-288 173.75,-288 173.75,-288 219,-288 219,-288 225,-288 231,-294 231,-300 231,-300 231,-312 231,-312 231,-318 225,-324 219,-324"/>
<text text-anchor="middle" x="196.38" y="-302.88" font-family="sans" font-size="10.00">sort_bayes</text>
</g>
<!-- 13&#45;&gt;0 -->
<g id="edge8" class="edge">
<title>13&#45;&gt;0</title>
<path fill="none" stroke="grey" stroke-width="2" d="M197.37,-287.04C199.76,-247.76 206.71,-151.41 221.38,-72 222.74,-64.63 224.58,-56.78 226.49,-49.44"/>
<polygon fill="grey" stroke="grey" stroke-width="2" points="229.83,-50.49 229.1,-39.92 223.08,-48.64 229.83,-50.49"/>
</g>
<!-- 13&#45;&gt;17 -->
<g id="edge31" class="edge">
<title>13&#45;&gt;17</title>
<path fill="none" stroke="grey" stroke-width="2" d="M221.87,-287.15C233.62,-278.93 247.78,-269.02 260.58,-260.06"/>
<polygon fill="grey" stroke="grey" stroke-width="2" points="262.26,-263.15 268.45,-254.55 258.25,-257.42 262.26,-263.15"/>
</g>
<!-- 14&#45;&gt;13 -->
<g id="edge24" class="edge">
<title>14&#45;&gt;13</title>
<path fill="none" stroke="grey" stroke-width="2" d="M188.15,-359.34C189.19,-352.75 190.39,-345.08 191.56,-337.67"/>
<polygon fill="grey" stroke="grey" stroke-width="2" points="195,-338.31 193.09,-327.89 188.08,-337.23 195,-338.31"/>
</g>
<!-- 15&#45;&gt;0 -->
<g id="edge9" class="edge">
<title>15&#45;&gt;0</title>
<path fill="none" stroke="grey" stroke-width="2" d="M292.94,-71.34C284.35,-63.52 274.05,-54.16 264.56,-45.53"/>
<polygon fill="grey" stroke="grey" stroke-width="2" points="267.06,-43.07 257.31,-38.94 262.35,-48.25 267.06,-43.07"/>
</g>
<!-- 16&#45;&gt;15 -->
<g id="edge26" class="edge">
<title>16&#45;&gt;15</title>
<path fill="none" stroke="grey" stroke-width="2" d="M324.34,-143.34C322.81,-136.67 321.03,-128.89 319.32,-121.39"/>
<polygon fill="grey" stroke="grey" stroke-width="2" points="322.78,-120.82 317.14,-111.85 315.96,-122.38 322.78,-120.82"/>
</g>
<!-- 17&#45;&gt;15 -->
<g id="edge27" class="edge">
<title>17&#45;&gt;15</title>
<path fill="none" stroke="grey" stroke-width="2" d="M293.24,-215.11C290.61,-197.02 287.93,-168.35 292.38,-144 293.8,-136.19 296.31,-128.04 299.09,-120.53"/>
<polygon fill="grey" stroke="grey" stroke-width="2" points="302.24,-122.08 302.73,-111.5 295.75,-119.47 302.24,-122.08"/>
</g>
<!-- 17&#45;&gt;16 -->
<g id="edge29" class="edge">
<title>17&#45;&gt;16</title>
<path fill="none" stroke="grey" stroke-width="2" d="M304.45,-215.34C307.61,-208.43 311.32,-200.31 314.86,-192.56"/>
<polygon fill="grey" stroke="grey" stroke-width="2" points="317.96,-194.2 318.93,-183.65 311.59,-191.29 317.96,-194.2"/>
</g>
</g>
</svg>
